<svg xmlns="http://www.w3.org/2000/svg" xmlns:xlink="http://www.w3.org/1999/xlink" viewBox="0 0 750 500"><defs><style>.cls-1{isolation:isolate;}.cls-2{fill:url(#Degradado_sin_nombre_67);}.cls-3{fill:url(#Degradado_sin_nombre_79);}.cls-4{fill:url(#Degradado_sin_nombre_79-2);}.cls-5{fill:url(#Degradado_sin_nombre_79-3);}.cls-6{fill:url(#Degradado_sin_nombre_80);}.cls-7,.cls-8{fill:#fff8bb;}.cls-7{opacity:0.15;}.cls-8{opacity:0.2;}.cls-9{fill:#fbb62b;}.cls-10{fill:#fcc64f;}.cls-11{fill:#ec9c19;}.cls-12,.cls-16,.cls-25,.cls-37{mix-blend-mode:multiply;}.cls-12{fill:url(#Degradado_sin_nombre_61);}.cls-13{fill:#eec61d;}.cls-14{fill:#fbe367;}.cls-15{fill:#dab20e;}.cls-16{fill:url(#Degradado_sin_nombre_59);}.cls-17{fill:#4d542b;}.cls-18{fill:#6a8922;}.cls-19{fill:#b4a30b;}.cls-20{fill:#d2be07;}.cls-21{fill:#97880f;}.cls-22{fill:#edbd05;}.cls-23{fill:#ffd039;}.cls-24{fill:#e9ad01;}.cls-25{fill:url(#Degradado_sin_nombre_53);}.cls-26{fill:#678c25;}.cls-27{fill:#293728;}.cls-28{fill:#66321c;}.cls-29{fill:#7c461d;}.cls-30{fill:#542919;}.cls-31{fill:#5d5d1f;}.cls-32{fill:#bdac3b;}.cls-33{fill:#4d522a;}.cls-34{fill:#b58f12;}.cls-35{fill:#daba49;}.cls-36{fill:#9d7e0a;}.cls-37{fill:url(#Degradado_sin_nombre_41);}.cls-38{fill:#818d3b;}.cls-39{fill:#fee580;}.cls-40{fill:#5c5c02;}.cls-41{fill:#716d0a;}.cls-42{fill:#525000;}.cls-43{fill:#7f770e;}.cls-44{fill:#f5d532;}.cls-45{fill:#83831c;}.cls-46{fill:#a8a274;}.cls-47{fill:#878752;}.cls-48{fill:#cf6842;}.cls-49{fill:#ab473c;}.cls-50{fill:#ede8c0;}.cls-51{fill:#fcf9de;}.cls-52{fill:#fff;}.cls-53{fill:#9c453b;}.cls-54{fill:#722828;}.cls-55{fill:none;stroke:#7c461d;stroke-linecap:round;stroke-linejoin:round;}.cls-56{fill:url(#Degradado_sin_nombre_89);}.cls-57{fill:url(#Degradado_sin_nombre_89-2);}.cls-58{fill:url(#Degradado_sin_nombre_89-3);}.cls-59{fill:url(#Degradado_sin_nombre_89-4);}.cls-60{fill:url(#Degradado_sin_nombre_89-5);}.cls-61{fill-rule:evenodd;fill:url(#Degradado_sin_nombre_89-6);}</style><linearGradient id="Degradado_sin_nombre_67" x1="375" y1="260.18" x2="375" y2="5.94" gradientUnits="userSpaceOnUse"><stop offset="0" stop-color="#f8f4c7"/><stop offset="1" stop-color="#fcb422"/></linearGradient><linearGradient id="Degradado_sin_nombre_79" x1="516.94" y1="173.1" x2="516.94" y2="8.2" gradientUnits="userSpaceOnUse"><stop offset="0" stop-color="#f8f4c7" stop-opacity="0.3"/><stop offset="1" stop-color="#f8f4c7" stop-opacity="0"/></linearGradient><linearGradient id="Degradado_sin_nombre_79-2" x1="3467.05" y1="125.46" x2="3467.05" y2="8.66" gradientTransform="matrix(-1, 0, 0, 1, 3604.3, 0)" xlink:href="#Degradado_sin_nombre_79"/><linearGradient id="Degradado_sin_nombre_79-3" x1="89.84" y1="177.43" x2="89.84" y2="52.44" xlink:href="#Degradado_sin_nombre_79"/><linearGradient id="Degradado_sin_nombre_80" x1="626.66" y1="137.81" x2="626.66" y2="45.83" gradientUnits="userSpaceOnUse"><stop offset="0" stop-color="#f8f4c7" stop-opacity="0.2"/><stop offset="1" stop-color="#f8f4c7" stop-opacity="0"/></linearGradient><linearGradient id="Degradado_sin_nombre_61" x1="432.83" y1="209.32" x2="432.83" y2="294.24" gradientUnits="userSpaceOnUse"><stop offset="0" stop-color="#fbb62b" stop-opacity="0"/><stop offset="1" stop-color="#e28c10" stop-opacity="0.5"/></linearGradient><linearGradient id="Degradado_sin_nombre_59" x1="211.09" y1="223.05" x2="211.09" y2="295.66" gradientUnits="userSpaceOnUse"><stop offset="0" stop-color="#eec61d" stop-opacity="0"/><stop offset="1" stop-color="#c99a06" stop-opacity="0.5"/></linearGradient><linearGradient id="Degradado_sin_nombre_53" x1="390.5" y1="304.41" x2="363.89" y2="465.69" gradientUnits="userSpaceOnUse"><stop offset="0" stop-color="#97880f" stop-opacity="0"/><stop offset="1" stop-color="#395e11" stop-opacity="0.4"/></linearGradient><linearGradient id="Degradado_sin_nombre_41" x1="206.8" y1="458.48" x2="133.82" y2="558.83" gradientUnits="userSpaceOnUse"><stop offset="0" stop-color="#5d5d1f" stop-opacity="0"/><stop offset="1" stop-color="#4d542b" stop-opacity="0.4"/></linearGradient><linearGradient id="Degradado_sin_nombre_89" x1="251.77" y1="301.27" x2="251.77" y2="314.98" gradientUnits="userSpaceOnUse"><stop offset="0" stop-color="#ab473c"/><stop offset="0.26" stop-color="#913e32"/><stop offset="0.75" stop-color="#652f20"/><stop offset="1" stop-color="#542919"/></linearGradient><linearGradient id="Degradado_sin_nombre_89-2" x1="283.87" y1="296.48" x2="283.87" y2="310.04" xlink:href="#Degradado_sin_nombre_89"/><linearGradient id="Degradado_sin_nombre_89-3" x1="317.19" y1="290.57" x2="317.19" y2="303.95" xlink:href="#Degradado_sin_nombre_89"/><linearGradient id="Degradado_sin_nombre_89-4" x1="180.43" y1="286.99" x2="180.43" y2="300.37" xlink:href="#Degradado_sin_nombre_89"/><linearGradient id="Degradado_sin_nombre_89-5" x1="3146.68" y1="300.6" x2="3146.68" y2="316.93" gradientTransform="matrix(-1, 0, 0, 1, 3354.06, 0)" xlink:href="#Degradado_sin_nombre_89"/><linearGradient id="Degradado_sin_nombre_89-6" x1="586.73" y1="272.2" x2="586.73" y2="301.11" xlink:href="#Degradado_sin_nombre_89"/></defs><title>bg</title><g class="cls-1"><g id="objects"><g id="_Group_" data-name="&lt;Group&gt;"><rect id="_Rectangle_" data-name="&lt;Rectangle&gt;" class="cls-2" width="750" height="500"/><g id="_Group_2" data-name="&lt;Group&gt;"><path id="_Path_" data-name="&lt;Path&gt;" class="cls-3" d="M750,112.59c-1.51,1-2.3,2.19-1.75,3.55a17.75,17.75,0,0,0-30.35-4.33c1.16-7.81-4.76-16-12.54-17.33s-16.09,4.4-17.6,12.15c-.24-7.21-11-11.19-15.88-5.88a19.34,19.34,0,0,0-32.08-14.37c1.84-10-6.42-19.75-16.15-22.69-9-2.73-18.14.79-26.29,4.9C596.27,57.67,586.28,49.68,576,45.73c-15.53-6-33.79-5.4-48.22,2.9s-24.31,24.6-23.55,41.23c-10.64-5.64-25.69.63-29.19,12.15-1.43-9.81-11.13-17.69-21-17.07s-18.55,9.62-18.76,19.54c-2.4-4.13-9.08-4-12.28-.47s-3.29,9.07-1.49,13.48c-3-2.79-8.91-.14-8.82,4-3-9.79-16.88-12.82-25.6-7.43S374.47,130.26,374,140.5a7.52,7.52,0,1,0-9.67,11.5c-5.76-1.67-11.86-3.34-17.66-1.82s-10.86,7.55-9.07,13.27c-5.43-3-13.26,2.36-12.41,8.51-6.86-7.07-20.81-4.22-24.36,5a31.72,31.72,0,0,0-17,2,59.14,59.14,0,0,0,34.62,1.72c3.49,5.34,12.44,5.7,16.35.66,6,7.12,19.46,4.86,22.79-3.8,14.13,11.92,39.48,4.82,45.36-12.71,6.49,8.69,21.35,9.09,28.29.76a13.46,13.46,0,0,0,26.13,2.68c15.65,17.8,47.77,16.72,62.18-2.1a30.72,30.72,0,0,0,52-1.4c5.42,7.69,17.48,9.58,25,3.92,9.86,10.06,28.73,8.71,37.07-2.65a25.13,25.13,0,0,0,47.52,1c2.83,5.79,11.83,7.22,16.31,2.58,7.14,12.24,27.3,13.56,36,2.36A33.68,33.68,0,0,0,750,182.38Z" transform="translate(0)"/><path id="_Path_2" data-name="&lt;Path&gt;" class="cls-4" d="M262.51,128.18c-2.51-6.51-12.39-8.53-17.25-3.52.6-4.36-4.95-8.16-8.79-6,1.27-4.05-2.32-8.32-6.42-9.4s-8.43.11-12.51,1.29a5.33,5.33,0,1,0-6.85-8.14c-.34-7.25-3.1-14.94-9.28-18.76s-16-1.67-18.13,5.26c.06-2.9-4.12-4.78-6.25-2.8,1.28-3.13,1.22-7-1.05-9.55s-7-2.59-8.7.33a14.17,14.17,0,0,0-28.19-1.75c-2.48-8.16-13.14-12.6-20.67-8.6C119,54.72,112,43.18,101.74,37.3S78.59,31,67.58,35.25C60.33,38,53.25,43.7,52.48,51.44,46.71,48.53,40.26,46,33.86,48,27,50.06,21.12,57,22.42,64A14,14,0,0,0,7.8,61.85,14.07,14.07,0,0,0,0,71.61v58.09a17.81,17.81,0,0,0,10.16,3.08,18.28,18.28,0,0,0,16.59-12.35c5.9,8,19.27,9,26.25,1.87,5.32,4,13.86,2.67,17.7-2.78a21.76,21.76,0,0,0,36.84,1c10.21,13.33,33,14.1,44,1.49a9.54,9.54,0,0,0,18.51-1.9c4.92,5.9,15.44,5.62,20-.54,4.17,12.42,22.12,17.45,32.13,9,2.36,6.14,11.92,7.73,16.14,2.69,2.77,3.57,9.11,3.31,11.58-.47a41.89,41.89,0,0,0,24.52-1.22A22.47,22.47,0,0,0,262.51,128.18Z" transform="translate(0)"/><path id="_Path_3" data-name="&lt;Path&gt;" class="cls-5" d="M176.54,168a10.67,10.67,0,0,0-5.22,1.48,3.36,3.36,0,0,0-4.54-2.07,7.69,7.69,0,0,1-1.56.8c-1.32.31-2.45-.9-3.32-1.94a19.17,19.17,0,0,0-9.34-6.48c-3.72-1-8.06-.2-10.66,2.64,1.21-1.32-6.64-5.69-7.5-6-3.53-1.11-7-1-9.66,1.85a19.45,19.45,0,0,0-34.46-8.44c0-5-7.05-8.21-10.87-5,.62-6-8.54-9.93-12.47-5.38a19.2,19.2,0,0,0-9-22.67,19.2,19.2,0,0,0-23.69,5.78c-.09-6.05-.25-12.41-3.3-17.65s-10-8.71-15.34-5.84C18.52,94.16,13,86.95,7.5,88.42,11,87.47,9,77.64,8.17,75.66A16.9,16.9,0,0,0,0,66.94V179.8a12.46,12.46,0,0,0,3,1.75,17.31,17.31,0,0,0,7,1.26,18.69,18.69,0,0,0,14.77-7.73c.72,4,5.56,6.13,9.54,5.33s7.19-3.66,10.07-6.52a33.22,33.22,0,0,0,48-4.23c2.14,4.48,7.8,6.38,12.71,5.64s9.24-3.54,13.32-6.37c2,5.32,10.14,6.92,14,2.73a15.3,15.3,0,0,0,19.46-1,7.65,7.65,0,0,0,10.36.62c1.11,2,4,1.95,6.24,1.61l9.42-1.38a2.49,2.49,0,0,0,1.36-.49C180.61,169.81,178.33,167.94,176.54,168Z" transform="translate(0)"/><path id="_Path_4" data-name="&lt;Path&gt;" class="cls-6" d="M750,36a22.18,22.18,0,0,0-8.66-.33C730.91,37.37,723.47,46.31,722,56.46c-3.29-4-9.88-7.24-15-7.3A13.6,13.6,0,0,0,693.2,63.48c-2.94-.44-6.39-1.08-9,.79a6.87,6.87,0,0,0-2.45,7.55,20.12,20.12,0,0,0-14-5.79,16.15,16.15,0,0,0-13.18,7,24.16,24.16,0,0,0-2.94,7.63c-1.05,4.4-.31,8.17-.44,12.46-3.62-1.63-7.31-2.79-11.22-.91a11,11,0,0,0-6.06,9.45c-13.73-14.08-32.76,5.51-36.94,18.71-3.17-4.16-7.2-8.22-12.38-9s-11.17,3.63-10.14,8.76c-3.69-1.78-7.59-3.61-11.68-3.33-4.93.34-7.19,3.87-8.86,8a8.25,8.25,0,0,0-9.67-2.88,9.88,9.88,0,0,0-5.94,8.46c-.95-2.72-4.55-3.85-7.21-2.73s-4.32,3.89-4.85,6.72c-2.37-1.76-5.26-2.32-7.79-.52a19.82,19.82,0,0,1-2.86,2.05,9.44,9.44,0,0,1-4.09.58l-8-.06c-.58,1.12.71,2.28,1.85,2.81a24,24,0,0,0,18.65,0c3.68,3.39,10.51,2.12,12.72-2.37a11.13,11.13,0,0,0,11-.66c5.82,8.76,19.14,13.46,27.13,4.2,1.5,6.38,9.36,9.88,15.62,8s10.6-8,11.93-14.44c-.79,3.82,12.07,8.1,14.51,8.51,7,1.16,12.2-1.64,18.46-4.23a5,5,0,0,0,9.16,2.47,13.81,13.81,0,0,0,9.79,5.36,25.48,25.48,0,0,0,11.27-1.67c6.14-2.18,13.1-5.92,17.85-10.38a16.95,16.95,0,0,0,31.55.24,13,13,0,0,0,24.72,5.14A21.8,21.8,0,0,0,750,147.48Z" transform="translate(0)"/></g><g id="_Group_3" data-name="&lt;Group&gt;"><polygon id="_Path_5" data-name="&lt;Path&gt;" class="cls-7" points="720.78 0 595.89 316.72 502.87 316.72 669.39 0 720.78 0"/><polygon id="_Path_6" data-name="&lt;Path&gt;" class="cls-7" points="613.2 0 468.25 316.72 280.46 316.72 454.73 0 613.2 0"/><polygon id="_Path_7" data-name="&lt;Path&gt;" class="cls-8" points="579.52 0 436.3 316.72 379.44 316.72 548.67 0 579.52 0"/><polygon id="_Path_8" data-name="&lt;Path&gt;" class="cls-8" points="510.14 0 345.68 316.72 317.37 316.72 494.39 0 510.14 0"/><polygon id="_Path_9" data-name="&lt;Path&gt;" class="cls-7" points="369.97 0 208.26 316.72 159.27 316.72 345.59 0 369.97 0"/><polygon id="_Path_10" data-name="&lt;Path&gt;" class="cls-7" points="199.56 0 23.21 316.72 0 316.72 0 216.47 141.39 0 199.56 0"/></g><g id="_Group_4" data-name="&lt;Group&gt;"><g id="_Group_5" data-name="&lt;Group&gt;"><path id="_Path_11" data-name="&lt;Path&gt;" class="cls-9" d="M750,223.85c-28.07-11.3-98.85-15-168.87-13.1-140.89,3.9-320.26,49.35-465.47,86.19H750Z" transform="translate(0)"/><path id="_Path_12" data-name="&lt;Path&gt;" class="cls-10" d="M537.87,245.95c54.13-4.88,80.28-11.57,80.28-11.57s-38.55,18.76-25,20.83,172.31-31.08,109.17-40.94l0-.09c-33.7-3.65-77.6-4.65-121.22-3.45-58.33,1.61-123.25,10.35-189.61,22.65a18.22,18.22,0,0,0-4.46,3.51C378.39,246.71,483.74,250.82,537.87,245.95Z" transform="translate(0)"/><path id="_Path_13" data-name="&lt;Path&gt;" class="cls-11" d="M750,223.85c-7.62-3.07-18.4-5.58-31.45-7.57,62.82,22-13,87.9-180.65,75.46-159-11.8-185.39-39.3-169-54-32.07,6.29-64.34,13.3-96.24,20.66l-2.53,38.3H750Z" transform="translate(0)"/><path id="_Path_14" data-name="&lt;Path&gt;" class="cls-12" d="M750,223.85c-28.07-11.3-98.85-15-168.87-13.1-140.89,3.9-320.26,49.35-465.47,86.19H750Z" transform="translate(0)"/></g><g id="_Group_6" data-name="&lt;Group&gt;"><path id="_Path_15" data-name="&lt;Path&gt;" class="cls-13" d="M422.18,296.66s-86.36-47.14-217.86-70.77S0,215.47,0,215.47v81.19Z" transform="translate(0)"/><path id="_Path_16" data-name="&lt;Path&gt;" class="cls-14" d="M229.58,243.35c116.09,22,192.6,53.31,192.6,53.31s-86.36-47.14-217.86-70.77S0,215.47,0,215.47V231S93.65,217.63,229.58,243.35Z" transform="translate(0)"/><path id="_Path_17" data-name="&lt;Path&gt;" class="cls-15" d="M0,246.46s111-3.42,162.34,6.21-20.23,21.91-3.57,26.51,263.41,17.47,263.41,17.47H0Z" transform="translate(0)"/><path id="_Path_18" data-name="&lt;Path&gt;" class="cls-16" d="M422.18,296.66s-86.36-47.14-217.86-70.77S0,215.47,0,215.47v81.19Z" transform="translate(0)"/></g><g id="_Group_7" data-name="&lt;Group&gt;"><path id="_Path_19" data-name="&lt;Path&gt;" class="cls-17" d="M750,236.6c-1.35-1.46-2.65-1.73-4.69-1.7a4.8,4.8,0,0,0-1.87.33,4.49,4.49,0,0,0-1.43,1.09,8.83,8.83,0,0,0-2.27,4.75,3.78,3.78,0,0,0-6.52,3,8,8,0,0,0-9.44-2.69c-3.22,1.49-4.86,5.85-3.14,8.94a2.56,2.56,0,0,0-2.88,4.13,12.55,12.55,0,0,0-5.65,1.47,6,6,0,0,0-3.07,4.74,4,4,0,0,0,3.44,4.06,8,8,0,0,0-3.1.74,2.72,2.72,0,0,0-1.53,2.6c.19,1.29,1.52,2,2.72,2.56-2.14,1.82-2.2,5.42-.41,7.59a7.52,7.52,0,0,0,7.67,2.16,6.87,6.87,0,0,0,3.2,5.42,12.59,12.59,0,0,0,6.2,1.86c3.54.24,7.35-.51,9.89-3H750Z" transform="translate(0)"/><path id="_Path_20" data-name="&lt;Path&gt;" class="cls-18" d="M750,251.33a9.75,9.75,0,0,0-9.5,1.42c-2.86,2.19-3.94,6.73-1.7,9.55a4.27,4.27,0,0,0-5.17,4.56c-.71-4.14-6-3.61-8.57-1.75a7.49,7.49,0,0,0-3,6.45,4.38,4.38,0,0,0-5.29,4.33,7.4,7.4,0,0,0-10.71,9,8.9,8.9,0,0,0-3.8.27,3,3,0,0,0-2.12,2.88,6.47,6.47,0,0,0-10.37,2.65,5,5,0,0,0-7.19,6H750Z" transform="translate(0)"/></g><g id="_Group_8" data-name="&lt;Group&gt;"><rect id="_Rectangle_2" data-name="&lt;Rectangle&gt;" class="cls-19" y="296.66" width="750" height="203.34"/><path id="_Path_21" data-name="&lt;Path&gt;" class="cls-20" d="M750,343.08C541.42,311.72,322.47,306.72,0,306.13v-9.47H750Z" transform="translate(0)"/><path id="_Path_22" data-name="&lt;Path&gt;" class="cls-21" d="M0,500V367s258.9-31.53,460.38-14.75S750,407.08,750,407.08V500Z" transform="translate(0)"/><path id="_Path_23" data-name="&lt;Path&gt;" class="cls-22" d="M480,296.66c31.44,7.36,109,38.19,128.09,54.65,10.4,8.95-4.5,10.42-45.84,27.85-40.44,17-71.26,40.84-97.29,65.89S391.17,500,283.34,500H532s10.32-13.12,24.67-39.27c15.39-28.05,20.24-40.59,69-62.39s66.44-26.26,56.16-36.59c-12.75-12.82-90.48-51.37-172.27-65.07Z" transform="translate(0)"/><path id="_Path_24" data-name="&lt;Path&gt;" class="cls-23" d="M613.7,326.35c-29.94-11.87-66.63-23.4-104.18-29.69H480c15.81,3.7,43.28,13.34,69.12,24.11Q581.91,323.27,613.7,326.35Z" transform="translate(0)"/><path id="_Path_25" data-name="&lt;Path&gt;" class="cls-24" d="M625.64,398.33c15.76-7,28.25-12.28,37.62-16.49-20.43-4.62-44.63-9.41-72.81-14-7.41,2.87-16.82,6.47-28.25,11.29-40.44,17-71.26,40.84-97.29,65.89S391.17,500,283.34,500H532s10.32-13.12,24.67-39.27C572.07,432.67,576.92,420.13,625.64,398.33Z" transform="translate(0)"/><rect id="_Rectangle_3" data-name="&lt;Rectangle&gt;" class="cls-25" y="296.66" width="750" height="203.34"/></g><g id="_Group_9" data-name="&lt;Group&gt;"><path id="_Path_26" data-name="&lt;Path&gt;" class="cls-17" d="M0,236.6c1.35-1.46,2.65-1.73,4.69-1.7a4.8,4.8,0,0,1,1.87.33A4.49,4.49,0,0,1,8,236.31a8.83,8.83,0,0,1,2.27,4.75,4.06,4.06,0,0,1,4.33-.85,4.08,4.08,0,0,1,2.19,3.86,8,8,0,0,1,9.44-2.69c3.22,1.49,4.86,5.85,3.14,8.94a2.56,2.56,0,0,1,2.88,4.13,12.55,12.55,0,0,1,5.65,1.47A6,6,0,0,1,41,260.67a4,4,0,0,1-3.44,4.06,8,8,0,0,1,3.1.74,2.72,2.72,0,0,1,1.53,2.6c-.19,1.29-1.52,2-2.72,2.56,2.14,1.82,2.2,5.42.41,7.59a7.52,7.52,0,0,1-7.67,2.16,6.87,6.87,0,0,1-3.2,5.42,12.59,12.59,0,0,1-6.2,1.86c-3.54.24-7.35-.51-9.89-3H0Z" transform="translate(0)"/><path id="_Path_27" data-name="&lt;Path&gt;" class="cls-26" d="M0,251.33a9.75,9.75,0,0,1,9.5,1.42c2.86,2.19,3.94,6.73,1.7,9.55a4.27,4.27,0,0,1,5.17,4.56c.71-4.14,6-3.61,8.57-1.75a7.49,7.49,0,0,1,3,6.45,4.38,4.38,0,0,1,5.29,4.33,7.4,7.4,0,0,1,10.71,9,8.9,8.9,0,0,1,3.8.27A3,3,0,0,1,49.82,288a6.47,6.47,0,0,1,10.37,2.65,5,5,0,0,1,7.19,6H0Z" transform="translate(0)"/></g><g id="_Group_10" data-name="&lt;Group&gt;"><path id="_Path_28" data-name="&lt;Path&gt;" class="cls-17" d="M750,425.74c-4.55-5.69-18.48-4-22,0s-4.64,12-2.71,15.16c0,0-5-5.76-10.83-2.67s0,9.36,0,9.36-6.19,1.1-6.19,5.35,3.87,7.78,3.87,7.78-5-1.6-7,1.88a6,6,0,0,0,0,6.21s-.17-10.54-14.59-11.47-17.51,11.16-17.51,11.16-4.25-6.9-12.38-4.46-7,8.32-7,8.32-5-3.92-9.28-.84-3.09,6.58-3.09,6.58-10-8.78-21.21-2.17-8.58,14.53-8.58,14.53-8.1-8.9-17.2-3.09l-1,6.19s-6.55-7-14.29-5-8.9,5-8.9,5-15.84-7.22-25.52,6.45H750Z" transform="translate(0)"/><path id="_Path_29" data-name="&lt;Path&gt;" class="cls-27" d="M625.64,500H750V460.94a16.62,16.62,0,0,0-8.38,1.64,27.72,27.72,0,0,0-9.72,8.47c-1.45,1.9-2.81,4.11-2.67,6.5-5.33-4-13.27-1.32-12,6.32-1.41-2.32-5.1-2.32-7.14-.52s-2.7,4.72-2.67,7.44c-4.49-3.36-9.35-6.87-15-7.08s-11.7,4.58-10.56,10.07c-1.62-2.47-3.42-5.1-6.2-6.11s-6.65.67-6.62,3.63c-3-2.55-6.71-4.55-10.6-4.22s-7.67,3.67-7.37,7.57a7.33,7.33,0,0,0-6.92-3.85c-2.78.33-5.19,3.08-4.69,5.84a7.86,7.86,0,0,0-10.13-2.51A7.78,7.78,0,0,0,625.64,500Z" transform="translate(0)"/></g><g id="_Group_11" data-name="&lt;Group&gt;"><g id="_Group_12" data-name="&lt;Group&gt;"><polygon id="_Path_30" data-name="&lt;Path&gt;" class="cls-28" points="201.27 374.2 206.39 427.09 211.43 428.69 210.07 374.2 201.27 374.2"/><polygon id="_Path_31" data-name="&lt;Path&gt;" class="cls-29" points="203.48 397.04 202.84 375.31 207.38 374.2 201.27 374.2 203.48 397.04"/><polygon id="_Path_32" data-name="&lt;Path&gt;" class="cls-30" points="208.27 427.68 207.38 374.2 210.07 374.2 211.43 428.69 208.27 427.68"/></g><g id="_Group_13" data-name="&lt;Group&gt;"><polygon id="_Path_33" data-name="&lt;Path&gt;" class="cls-28" points="287.11 383.19 291.52 450.6 296.57 451.93 296.57 384.24 287.11 383.19"/><path id="_Path_34" data-name="&lt;Path&gt;" class="cls-29" d="M293.17,383.86l-4.56.48s1.31,41.61,1.29,41.4l-2.79-42.55Z" transform="translate(0)"/><polygon id="_Path_35" data-name="&lt;Path&gt;" class="cls-30" points="296.57 384.24 293.17 383.86 294.2 451.31 296.57 451.93 296.57 384.24"/></g><g id="_Group_14" data-name="&lt;Group&gt;"><polygon id="_Path_36" data-name="&lt;Path&gt;" class="cls-28" points="379.39 400.22 384.65 483.22 389.9 484.93 389.9 401.44 379.39 400.22"/><polygon id="_Path_37" data-name="&lt;Path&gt;" class="cls-29" points="387.08 401.11 381.07 401.68 382.73 452.94 379.39 400.22 387.08 401.11"/><polygon id="_Path_38" data-name="&lt;Path&gt;" class="cls-30" points="389.9 401.44 387.08 401.11 387.58 484.18 389.9 484.93 389.9 401.44"/></g><g id="_Group_15" data-name="&lt;Group&gt;"><polygon id="_Path_39" data-name="&lt;Path&gt;" class="cls-28" points="485.18 500 479.95 421.45 493.3 424.27 493.3 500 485.18 500"/><polygon id="_Path_40" data-name="&lt;Path&gt;" class="cls-29" points="488.75 423.31 481.67 423.31 484.11 484.01 479.95 421.45 488.75 423.31"/><polygon id="_Path_41" data-name="&lt;Path&gt;" class="cls-30" points="493.3 424.27 493.3 500 489.16 500 488.75 423.31 493.3 424.27"/></g><g id="_Group_16" data-name="&lt;Group&gt;"><polygon id="_Path_42" data-name="&lt;Path&gt;" class="cls-28" points="587.89 500 586.73 446.26 600.08 448.58 597.47 500 587.89 500"/><polygon id="_Path_43" data-name="&lt;Path&gt;" class="cls-29" points="594.41 447.59 588.56 448.03 587.86 498.45 586.73 446.26 594.41 447.59"/><polygon id="_Path_44" data-name="&lt;Path&gt;" class="cls-30" points="600.08 448.58 594.41 447.59 594.41 500 597.47 500 600.08 448.58"/></g><g id="_Group_17" data-name="&lt;Group&gt;"><path id="_Path_45" data-name="&lt;Path&gt;" class="cls-30" d="M690.63,500c-128.51-48.65-384.5-109.89-495.81-118.19l-8.22,1.67L194,386.8C297,396,522.71,452.64,668.25,500Z" transform="translate(0)"/><path id="_Path_46" data-name="&lt;Path&gt;" class="cls-28" d="M678,500C549.45,451.35,297.9,391.78,186.59,383.48l1.06,4c103,9.15,318.53,58.8,474.44,112.55Z" transform="translate(0)"/><path id="_Path_47" data-name="&lt;Path&gt;" class="cls-29" d="M678,500C549.45,451.35,297.9,391.78,186.59,383.48l.36,1.34C297.55,393.19,545,451.68,674.31,500Z" transform="translate(0)"/></g><g id="_Group_18" data-name="&lt;Group&gt;"><path id="_Path_48" data-name="&lt;Path&gt;" class="cls-30" d="M577.36,500c-115.07-41.57-246.94-82.64-382.74-102.39l-8.22,1.67,7.38,3.32c87,7.73,225.19,54.52,353.71,97.4Z" transform="translate(0)"/><path id="_Path_49" data-name="&lt;Path&gt;" class="cls-28" d="M565,500c-112.39-40.95-236.43-80.21-378.6-100.72l1.06,4C323,423.55,421.92,457.23,544.7,500Z" transform="translate(0)"/><path id="_Path_50" data-name="&lt;Path&gt;" class="cls-29" d="M565,500c-112.39-40.95-236.43-80.21-378.6-100.72l.27,1C327.6,420.65,450.72,459.43,562.34,500Z" transform="translate(0)"/></g></g><g id="_Group_19" data-name="&lt;Group&gt;"><g id="_Group_20" data-name="&lt;Group&gt;"><path id="_Path_51" data-name="&lt;Path&gt;" class="cls-17" d="M81.14,395.87q-9.62-.61-19.25-.86-19.27-.51-38.53.39-8.47.4-16.93,1.07L0,396.32V329.74c0-.33,3.82-2.73,9.14-2.73,3.46,0,7.89,2.39,10.24,5a13.21,13.21,0,0,1,1.91,14.66c2.64-2,6.71-.8,8.84,1.74s2.78,6,3.21,9.28a13.8,13.8,0,0,1,6.73-5.24,8.39,8.39,0,0,1,8.14,1.51,9.28,9.28,0,0,1,2.51,7.58,27.46,27.46,0,0,1-2.31,7.91,7.42,7.42,0,0,1,7.91,8.77,5.72,5.72,0,0,1,6.46.25c2.53,1.95,2.1,5.16,2.25,8a5.73,5.73,0,0,1,7.76,3.91c.51-1.69,2.86-2.25,5.09-1.85a3.87,3.87,0,0,1,2.52,2.89,3.05,3.05,0,0,1,2.85-.49,4.89,4.89,0,0,1,2.38,1.79,2.92,2.92,0,0,1,.71,2.28C85.95,396.87,82.48,396,81.14,395.87Z" transform="translate(0)"/><path id="_Path_52" data-name="&lt;Path&gt;" class="cls-27" d="M57.37,392.2a12.08,12.08,0,0,0-7.07-7.93c-4.23-1.77-9.06-1.47-13.51-.38a7.54,7.54,0,0,0-13.63-2.23c1.38-2.86-1.22-5.75-4.39-5.55.7-2.88-.58-5.19-2.61-5.63s-4.08.47-5.95,1.37a11.79,11.79,0,0,0-1.56-13.65A11,11,0,0,0,0,354.68v38.93l6.43.14Q31.84,391.74,57.37,392.2Z" transform="translate(0)"/></g><g id="_Group_21" data-name="&lt;Group&gt;"><path id="_Path_53" data-name="&lt;Path&gt;" class="cls-31" d="M0,391.44s64.46-9,191,19.79S432.16,500,432.16,500H0Z" transform="translate(0)"/><path id="_Path_54" data-name="&lt;Path&gt;" class="cls-32" d="M0,391.44V400a870.8,870.8,0,0,1,209.92,23.12C306.92,446,432.16,500,432.16,500S317.61,440,191,411.22,0,391.44,0,391.44Z" transform="translate(0)"/><path id="_Path_55" data-name="&lt;Path&gt;" class="cls-33" d="M0,443c49,1.8,176.38,33.24,231.31,57H0Z" transform="translate(0)"/><path id="_Path_56" data-name="&lt;Path&gt;" class="cls-34" d="M137.22,443c21.28-20.68,39.34-29.3,49.37-32.8q-24.14-5.38-45.2-9C68.39,401.84,0,470.73,0,470.73V500H94.56S110.21,469.28,137.22,443Z" transform="translate(0)"/><path id="_Path_57" data-name="&lt;Path&gt;" class="cls-35" d="M109.45,405.55c20,2.29,41.78,5.48,65,9.94a96.48,96.48,0,0,1,12.14-5.27h0q-12-2.68-23.31-4.92h-.07l-5.34-1-.29-.06-4.94-.94-.59-.11-4.63-.85-.77-.14-5.16-.92-.1,0A134.57,134.57,0,0,0,109.45,405.55Z" transform="translate(0)"/><path id="_Path_58" data-name="&lt;Path&gt;" class="cls-36" d="M29.25,446.07A281.79,281.79,0,0,0,0,470.73V500H94.56A240.91,240.91,0,0,1,118,464.44C86.12,456.45,54.27,449.77,29.25,446.07Z" transform="translate(0)"/><path id="_Path_59" data-name="&lt;Path&gt;" class="cls-37" d="M0,391.44s64.46-9,191,19.79S432.16,500,432.16,500H0Z" transform="translate(0)"/></g><g id="_Group_22" data-name="&lt;Group&gt;"><g id="_Group_23" data-name="&lt;Group&gt;"><path id="_Path_60" data-name="&lt;Path&gt;" class="cls-33" d="M323.26,482.43a4.75,4.75,0,0,1,1.42-5.34,6.57,6.57,0,0,1,5.19-1.57s-3.35,1.15-3.8,2.58A21.5,21.5,0,0,1,323.26,482.43Z" transform="translate(0)"/><path id="_Path_61" data-name="&lt;Path&gt;" class="cls-33" d="M325,482.65s.49-3.44,2.88-4.9,6.35-.67,6.35-.67-1.4,3.27-3.8,4.21A28.34,28.34,0,0,1,325,482.65Z" transform="translate(0)"/><path id="_Path_62" data-name="&lt;Path&gt;" class="cls-33" d="M327.35,482.65s2.28-2.08,4.23-2a5.75,5.75,0,0,1,3.36,1.37,5.41,5.41,0,0,1-3.12,1.2A22,22,0,0,1,327.35,482.65Z" transform="translate(0)"/></g><g id="_Group_24" data-name="&lt;Group&gt;"><path id="_Path_63" data-name="&lt;Path&gt;" class="cls-33" d="M240.63,470.73a4.48,4.48,0,0,1,2.89-4.14c2.92-1,6.19.52,6.19.52a8.94,8.94,0,0,1-3.78,3A14.46,14.46,0,0,1,240.63,470.73Z" transform="translate(0)"/><path id="_Path_64" data-name="&lt;Path&gt;" class="cls-33" d="M238.53,470.73s-.84-6.24,3-7.3a19.44,19.44,0,0,1,6.44-.8s-.69,4.62-3.87,6.18A21.2,21.2,0,0,1,238.53,470.73Z" transform="translate(0)"/></g><g id="_Group_25" data-name="&lt;Group&gt;"><path id="_Path_65" data-name="&lt;Path&gt;" class="cls-33" d="M21.66,425.8c-.33-2.12,4.88-5.93,5.69-5.21s-.75,2.16-2.3,3.58A6.69,6.69,0,0,1,21.66,425.8Z" transform="translate(0)"/><path id="_Path_66" data-name="&lt;Path&gt;" class="cls-33" d="M24.5,425.8s.67-4.79,4.94-6.19,6.86,0,6.86,0a10.79,10.79,0,0,1-4.66,4.56A27.26,27.26,0,0,1,24.5,425.8Z" transform="translate(0)"/><path id="_Path_67" data-name="&lt;Path&gt;" class="cls-33" d="M35.14,424.95c-.55-1.09-5-2.08-7.79.64a17.47,17.47,0,0,0,4.69.86C33.85,426.37,35.92,426.5,35.14,424.95Z" transform="translate(0)"/></g><g id="_Group_26" data-name="&lt;Group&gt;"><g id="_Group_27" data-name="&lt;Group&gt;"><path id="_Path_68" data-name="&lt;Path&gt;" class="cls-38" d="M233.66,457.34c-1.88,2.93-2.24,6.7,0,9.68a13.93,13.93,0,0,0,4.88,3.71,9.86,9.86,0,0,0,.28-6.7C237.66,460.34,233.66,457.34,233.66,457.34Z" transform="translate(0)"/><path id="_Path_69" data-name="&lt;Path&gt;" class="cls-38" d="M240.63,470.73s-1-4.39.49-6.7a7.77,7.77,0,0,1,3.69-3,15.42,15.42,0,0,1,0,4.87C243.94,468.73,240.63,470.73,240.63,470.73Z" transform="translate(0)"/><path id="_Path_70" data-name="&lt;Path&gt;" class="cls-38" d="M235.69,470.52c-.61-1.35-3.85-3.74-5.32-3.37s-.7,1.67.95,2.57A16.8,16.8,0,0,0,235.69,470.52Z" transform="translate(0)"/></g><g id="_Group_28" data-name="&lt;Group&gt;"><g id="_Group_29" data-name="&lt;Group&gt;"><path class="cls-39" d="M248.13,414.64c-3.08,1.62-5.27,4.7-4.8,8.41a13.94,13.94,0,0,0,2.39,5.64,9.86,9.86,0,0,0,3.57-5.67C250.12,419.23,248.13,414.64,248.13,414.64Z" transform="translate(0)"/></g><path id="_Path_71" data-name="&lt;Path&gt;" class="cls-39" d="M247.54,429.72s1.32-4.3,3.75-5.57a7.77,7.77,0,0,1,4.71-.82,15.42,15.42,0,0,1-2.42,4.23C251.42,429.63,247.54,429.72,247.54,429.72Z" transform="translate(0)"/><path id="_Path_72" data-name="&lt;Path&gt;" class="cls-39" d="M243.36,427.09c.14-1.48-1.49-5.15-3-5.57s-1.43,1.1-.45,2.7A16.8,16.8,0,0,0,243.36,427.09Z" transform="translate(0)"/></g><g id="_Group_30" data-name="&lt;Group&gt;"><path id="_Path_73" data-name="&lt;Path&gt;" class="cls-38" d="M325,482.65a5.85,5.85,0,0,1-1.54-5.56,9.72,9.72,0,0,1,4.17-5.58s1.54,3.88,1.08,6.66S325,482.65,325,482.65Z" transform="translate(0)"/><path id="_Path_74" data-name="&lt;Path&gt;" class="cls-38" d="M323.33,482.65s-4-1.85-4-3.71a21.28,21.28,0,0,1,1.39-5.41,7.11,7.11,0,0,1,1.39,3.54A35.47,35.47,0,0,0,323.33,482.65Z" transform="translate(0)"/><path id="_Path_75" data-name="&lt;Path&gt;" class="cls-38" d="M327.35,482.65s1.91-3.87,5-3.27C332.37,479.39,333.18,482.81,327.35,482.65Z" transform="translate(0)"/></g><g id="_Group_31" data-name="&lt;Group&gt;"><path id="_Path_76" data-name="&lt;Path&gt;" class="cls-38" d="M29.38,412.41c1.88,2.93,2.24,6.7,0,9.68a13.93,13.93,0,0,1-4.88,3.71,9.86,9.86,0,0,1-.28-6.7C25.38,415.41,29.38,412.41,29.38,412.41Z" transform="translate(0)"/><path id="_Path_77" data-name="&lt;Path&gt;" class="cls-38" d="M22.28,424.18s.41-4.48-1.35-6.58a7.77,7.77,0,0,0-4-2.55,15.42,15.42,0,0,0,.63,4.83C18.73,422.62,22.28,424.18,22.28,424.18Z" transform="translate(0)"/><path id="_Path_78" data-name="&lt;Path&gt;" class="cls-38" d="M27.35,425.59c.61-1.35,3.85-3.74,5.32-3.37s.7,1.67-.95,2.57A16.8,16.8,0,0,1,27.35,425.59Z" transform="translate(0)"/><path id="_Path_79" data-name="&lt;Path&gt;" class="cls-38" d="M21.66,425.8A10,10,0,0,0,15,421.71s-.55,1.49,1.84,3A7.6,7.6,0,0,0,21.66,425.8Z" transform="translate(0)"/></g><g id="_Group_32" data-name="&lt;Group&gt;"><path id="_Path_80" data-name="&lt;Path&gt;" class="cls-39" d="M93.27,395.68c-2.2-1.19-4.29-5.13-3.1-9a19.59,19.59,0,0,1,3.1-6.23S96.83,385,97,388,93.27,395.68,93.27,395.68Z" transform="translate(0)"/><path id="_Path_81" data-name="&lt;Path&gt;" class="cls-39" d="M90.45,394.69s0-4.86-4.46-6.64c0,0-.5,3.17,1.39,5S90.45,394.69,90.45,394.69Z" transform="translate(0)"/></g></g></g></g><g id="_Group_33" data-name="&lt;Group&gt;"><g id="_Group_34" data-name="&lt;Group&gt;"><g id="_Group_35" data-name="&lt;Group&gt;"><path id="_Path_82" data-name="&lt;Path&gt;" class="cls-33" d="M695.38,331.57a3.36,3.36,0,0,1,2.16-3.11,6.92,6.92,0,0,1,4.64.39,6.7,6.7,0,0,1-2.84,2.25A10.85,10.85,0,0,1,695.38,331.57Z" transform="translate(0)"/><path id="_Path_83" data-name="&lt;Path&gt;" class="cls-33" d="M693.81,331.57s-.63-4.68,2.26-5.47a14.58,14.58,0,0,1,4.83-.6s-.52,3.46-2.9,4.63A15.9,15.9,0,0,1,693.81,331.57Z" transform="translate(0)"/></g><g id="_Group_36" data-name="&lt;Group&gt;"><path id="_Path_84" data-name="&lt;Path&gt;" class="cls-40" d="M690.15,321.52a6.27,6.27,0,0,0,0,7.26,10.45,10.45,0,0,0,3.66,2.78,7.4,7.4,0,0,0,.21-5C693.15,323.77,690.15,321.52,690.15,321.52Z" transform="translate(0)"/><path id="_Path_85" data-name="&lt;Path&gt;" class="cls-40" d="M695.38,331.57s-.74-3.29.37-5a5.83,5.83,0,0,1,2.76-2.29,11.57,11.57,0,0,1,0,3.65A7.82,7.82,0,0,1,695.38,331.57Z" transform="translate(0)"/><path id="_Path_86" data-name="&lt;Path&gt;" class="cls-40" d="M691.67,331.4c-.46-1-2.89-2.8-4-2.53s-.52,1.25.71,1.92A12.6,12.6,0,0,0,691.67,331.4Z" transform="translate(0)"/></g></g><g id="_Group_37" data-name="&lt;Group&gt;"><g id="_Group_38" data-name="&lt;Group&gt;"><path id="_Path_87" data-name="&lt;Path&gt;" class="cls-33" d="M695.54,414.43a3.56,3.56,0,0,1,1.07-4,4.93,4.93,0,0,1,3.89-1.17s-2.51.86-2.85,1.93A16.13,16.13,0,0,1,695.54,414.43Z" transform="translate(0)"/><path id="_Path_88" data-name="&lt;Path&gt;" class="cls-33" d="M696.87,414.6s.37-2.58,2.16-3.67,4.76-.5,4.76-.5-1.05,2.45-2.85,3.16A21.26,21.26,0,0,1,696.87,414.6Z" transform="translate(0)"/><path id="_Path_89" data-name="&lt;Path&gt;" class="cls-33" d="M698.6,414.6s1.71-1.56,3.17-1.5a4.31,4.31,0,0,1,2.52,1,4.06,4.06,0,0,1-2.34.9A16.53,16.53,0,0,1,698.6,414.6Z" transform="translate(0)"/></g><g id="_Group_39" data-name="&lt;Group&gt;"><path id="_Path_90" data-name="&lt;Path&gt;" class="cls-40" d="M696.87,414.6a4.39,4.39,0,0,1-1.16-4.17,7.29,7.29,0,0,1,3.13-4.18,11.64,11.64,0,0,1,.81,5C699.3,413.33,696.87,414.6,696.87,414.6Z" transform="translate(0)"/><path id="_Path_91" data-name="&lt;Path&gt;" class="cls-40" d="M695.59,414.6s-3-1.39-3-2.78a16,16,0,0,1,1-4.05,5.33,5.33,0,0,1,1,2.66A26.6,26.6,0,0,0,695.59,414.6Z" transform="translate(0)"/><path id="_Path_92" data-name="&lt;Path&gt;" class="cls-40" d="M698.6,414.6s1.43-2.9,3.77-2.45C702.37,412.15,703,414.72,698.6,414.6Z" transform="translate(0)"/></g></g><g id="_Group_40" data-name="&lt;Group&gt;"><g id="_Group_41" data-name="&lt;Group&gt;"><path id="_Path_93" data-name="&lt;Path&gt;" class="cls-33" d="M160.23,342.48a3.56,3.56,0,0,1,1.07-4,4.93,4.93,0,0,1,3.89-1.17s-2.51.86-2.85,1.93A16.12,16.12,0,0,1,160.23,342.48Z" transform="translate(0)"/><path id="_Path_94" data-name="&lt;Path&gt;" class="cls-33" d="M161.55,342.65s.37-2.58,2.16-3.67,4.76-.5,4.76-.5-1.05,2.45-2.85,3.16A21.26,21.26,0,0,1,161.55,342.65Z" transform="translate(0)"/><path id="_Path_95" data-name="&lt;Path&gt;" class="cls-33" d="M163.29,342.65s1.71-1.56,3.17-1.5a4.32,4.32,0,0,1,2.52,1,4.06,4.06,0,0,1-2.34.9A16.54,16.54,0,0,1,163.29,342.65Z" transform="translate(0)"/></g><g id="_Group_42" data-name="&lt;Group&gt;"><path id="_Path_96" data-name="&lt;Path&gt;" class="cls-40" d="M161.55,342.65a4.39,4.39,0,0,1-1.16-4.17,7.29,7.29,0,0,1,3.13-4.18,11.65,11.65,0,0,1,.81,5C164,341.38,161.55,342.65,161.55,342.65Z" transform="translate(0)"/><path id="_Path_97" data-name="&lt;Path&gt;" class="cls-40" d="M160.28,342.65s-3-1.39-3-2.78a16,16,0,0,1,1-4.05,5.33,5.33,0,0,1,1,2.66A26.61,26.61,0,0,0,160.28,342.65Z" transform="translate(0)"/><path id="_Path_98" data-name="&lt;Path&gt;" class="cls-40" d="M163.29,342.65s1.43-2.9,3.77-2.45C167.06,340.2,167.66,342.77,163.29,342.65Z" transform="translate(0)"/></g></g><g id="_Group_43" data-name="&lt;Group&gt;"><g id="_Group_44" data-name="&lt;Group&gt;"><path id="_Path_99" data-name="&lt;Path&gt;" class="cls-33" d="M355.59,358.45c-.2-1.27,2.93-3.56,3.41-3.12s-.45,1.3-1.38,2.15A4,4,0,0,1,355.59,358.45Z" transform="translate(0)"/><path id="_Path_100" data-name="&lt;Path&gt;" class="cls-33" d="M357.29,358.45a4.8,4.8,0,0,1,3-3.71,5.5,5.5,0,0,1,4.12,0,6.47,6.47,0,0,1-2.8,2.74A16.36,16.36,0,0,1,357.29,358.45Z" transform="translate(0)"/><path id="_Path_101" data-name="&lt;Path&gt;" class="cls-33" d="M363.68,357.93c-.33-.66-3-1.25-4.68.38a10.48,10.48,0,0,0,2.81.52C362.9,358.78,364.14,358.86,363.68,357.93Z" transform="translate(0)"/></g><g id="_Group_45" data-name="&lt;Group&gt;"><path id="_Path_102" data-name="&lt;Path&gt;" class="cls-40" d="M360.22,350.41a5,5,0,0,1,0,5.81,8.36,8.36,0,0,1-2.93,2.22,5.92,5.92,0,0,1-.17-4A9.72,9.72,0,0,1,360.22,350.41Z" transform="translate(0)"/><path id="_Path_103" data-name="&lt;Path&gt;" class="cls-40" d="M356,357.47s.25-2.69-.81-3.95a4.66,4.66,0,0,0-2.43-1.53,9.25,9.25,0,0,0,.38,2.9A6.25,6.25,0,0,0,356,357.47Z" transform="translate(0)"/><path id="_Path_104" data-name="&lt;Path&gt;" class="cls-40" d="M359,358.32c.37-.81,2.31-2.24,3.19-2s.42,1-.57,1.54A10.08,10.08,0,0,1,359,358.32Z" transform="translate(0)"/><path id="_Path_105" data-name="&lt;Path&gt;" class="cls-40" d="M355.59,358.45a6,6,0,0,0-4-2.45s-.33.89,1.1,1.79A4.56,4.56,0,0,0,355.59,358.45Z" transform="translate(0)"/></g></g><g id="_Group_46" data-name="&lt;Group&gt;"><g id="_Group_47" data-name="&lt;Group&gt;"><path id="_Path_106" data-name="&lt;Path&gt;" class="cls-33" d="M41.49,321.71c-.25-1.59,3.66-4.45,4.27-3.9s-.56,1.62-1.73,2.68A5,5,0,0,1,41.49,321.71Z" transform="translate(0)"/><path id="_Path_107" data-name="&lt;Path&gt;" class="cls-33" d="M43.62,321.71s.51-3.59,3.71-4.64a6.88,6.88,0,0,1,5.14,0A8.09,8.09,0,0,1,49,320.49,20.45,20.45,0,0,1,43.62,321.71Z" transform="translate(0)"/><path id="_Path_108" data-name="&lt;Path&gt;" class="cls-33" d="M51.6,321.07c-.41-.82-3.73-1.56-5.85.48a13.1,13.1,0,0,0,3.52.64C50.63,322.13,52.18,322.23,51.6,321.07Z" transform="translate(0)"/></g><g id="_Group_48" data-name="&lt;Group&gt;"><path id="_Path_109" data-name="&lt;Path&gt;" class="cls-40" d="M47.27,311.67a6.27,6.27,0,0,1,0,7.26,10.45,10.45,0,0,1-3.66,2.78,7.4,7.4,0,0,1-.21-5C44.27,313.91,47.27,311.67,47.27,311.67Z" transform="translate(0)"/><path id="_Path_110" data-name="&lt;Path&gt;" class="cls-40" d="M41.95,320.49s.31-3.36-1-4.93a5.83,5.83,0,0,0-3-1.91,11.57,11.57,0,0,0,.47,3.62A7.82,7.82,0,0,0,41.95,320.49Z" transform="translate(0)"/><path id="_Path_111" data-name="&lt;Path&gt;" class="cls-38" d="M45.75,321.55c.46-1,2.89-2.8,4-2.53s.52,1.25-.71,1.92A12.6,12.6,0,0,1,45.75,321.55Z" transform="translate(0)"/><path id="_Path_112" data-name="&lt;Path&gt;" class="cls-40" d="M41.49,321.71a7.47,7.47,0,0,0-5-3.07s-.41,1.12,1.38,2.23A5.7,5.7,0,0,0,41.49,321.71Z" transform="translate(0)"/></g></g><g id="_Group_49" data-name="&lt;Group&gt;"><path id="_Path_113" data-name="&lt;Path&gt;" class="cls-41" d="M370,307.64s-5.7,7.7-8.11,23.61S370,348.87,370,348.87s9.24-2.74,7.49-17.59S370,307.64,370,307.64Z" transform="translate(0)"/><polygon id="_Path_114" data-name="&lt;Path&gt;" class="cls-42" points="369.63 330.31 368.57 358.3 371.15 358.3 369.63 330.31"/></g><g id="_Group_50" data-name="&lt;Group&gt;"><g id="_Group_51" data-name="&lt;Group&gt;"><path id="_Path_115" data-name="&lt;Path&gt;" class="cls-43" d="M624.15,260.95s-4,5.43-5.72,16.65S624.15,290,624.15,290s6.51-1.93,5.28-12.4S624.15,260.95,624.15,260.95Z" transform="translate(0)"/><polygon id="_Path_116" data-name="&lt;Path&gt;" class="cls-42" points="623.88 276.93 623.13 296.66 624.96 296.66 623.88 276.93"/></g><g id="_Group_52" data-name="&lt;Group&gt;"><path id="_Path_117" data-name="&lt;Path&gt;" class="cls-41" d="M636.28,246.16s-5.68,7.68-8.08,23.54,8.08,17.56,8.08,17.56,9.21-2.73,7.47-17.54S636.28,246.16,636.28,246.16Z" transform="translate(0)"/><polygon id="_Path_118" data-name="&lt;Path&gt;" class="cls-42" points="635.91 268.76 634.84 296.66 637.42 296.66 635.91 268.76"/></g></g><g id="_Group_53" data-name="&lt;Group&gt;"><g id="_Group_54" data-name="&lt;Group&gt;"><path id="_Path_119" data-name="&lt;Path&gt;" class="cls-43" d="M87.41,260.95s4,5.43,5.72,16.65S87.41,290,87.41,290s-6.51-1.93-5.28-12.4S87.41,260.95,87.41,260.95Z" transform="translate(0)"/><polygon id="_Path_120" data-name="&lt;Path&gt;" class="cls-42" points="87.68 276.93 88.43 296.66 86.61 296.66 87.68 276.93"/></g><g id="_Group_55" data-name="&lt;Group&gt;"><path id="_Path_121" data-name="&lt;Path&gt;" class="cls-41" d="M75.28,246.16s5.68,7.68,8.08,23.54-8.08,17.56-8.08,17.56-9.21-2.73-7.47-17.54S75.28,246.16,75.28,246.16Z" transform="translate(0)"/><polygon id="_Path_122" data-name="&lt;Path&gt;" class="cls-42" points="75.66 268.76 76.72 296.66 74.14 296.66 75.66 268.76"/></g></g><g id="_Group_56" data-name="&lt;Group&gt;"><g id="_Group_57" data-name="&lt;Group&gt;"><path id="_Path_123" data-name="&lt;Path&gt;" class="cls-43" d="M154.63,291.74s-5.7,7.7-8.11,23.61S154.63,333,154.63,333s9.24-2.74,7.49-17.59S154.63,291.74,154.63,291.74Z" transform="translate(0)"/><polygon id="_Path_124" data-name="&lt;Path&gt;" class="cls-42" points="154.25 314.41 153.18 342.4 155.77 342.4 154.25 314.41"/></g><g id="_Group_58" data-name="&lt;Group&gt;"><path id="_Path_125" data-name="&lt;Path&gt;" class="cls-41" d="M141.55,286.33s-5.7,7.7-8.11,23.61,8.11,17.62,8.11,17.62,9.24-2.74,7.49-17.59S141.55,286.33,141.55,286.33Z" transform="translate(0)"/><polygon id="_Path_126" data-name="&lt;Path&gt;" class="cls-42" points="141.17 309.01 140.11 337 142.69 337 141.17 309.01"/></g></g><g id="_Group_59" data-name="&lt;Group&gt;"><g id="_Group_60" data-name="&lt;Group&gt;"><path class="cls-44" d="M599.88,336.35a6.27,6.27,0,0,0-3.6,6.31,10.45,10.45,0,0,0,1.8,4.23,7.4,7.4,0,0,0,2.67-4.25C601.38,339.79,599.88,336.35,599.88,336.35Z" transform="translate(0)"/></g><g id="_Group_61" data-name="&lt;Group&gt;"><path class="cls-44" d="M599.44,347.66s1-3.22,2.81-4.18a5.83,5.83,0,0,1,3.53-.61A11.56,11.56,0,0,1,604,346,7.82,7.82,0,0,1,599.44,347.66Z" transform="translate(0)"/></g><g id="_Group_62" data-name="&lt;Group&gt;"><path class="cls-44" d="M596.3,345.68c.1-1.11-1.12-3.87-2.21-4.17s-1.07.83-.34,2A12.6,12.6,0,0,0,596.3,345.68Z" transform="translate(0)"/></g></g><g id="_Group_63" data-name="&lt;Group&gt;"><g id="_Group_64" data-name="&lt;Group&gt;"><path class="cls-44" d="M575.62,430.77A6.09,6.09,0,0,0,578,424a14.69,14.69,0,0,0-2.33-4.67s-2.67,3.43-2.8,5.72S575.62,430.77,575.62,430.77Z" transform="translate(0)"/></g><path id="_Path_127" data-name="&lt;Path&gt;" class="cls-44" d="M577.74,430a5.58,5.58,0,0,1,3.34-5s.37,2.38-1,3.72S577.74,430,577.74,430Z" transform="translate(0)"/></g></g><g id="_Group_65" data-name="&lt;Group&gt;"><path id="_Path_128" data-name="&lt;Path&gt;" class="cls-45" d="M526.69,296.58l.12.08h83.38a4.49,4.49,0,0,0-5.83-1.59,4.29,4.29,0,0,0-6-.89,2.75,2.75,0,0,0-5.14-.17,3.91,3.91,0,0,0-2.18-1.84,1.84,1.84,0,0,0-2.27,1.27,3.22,3.22,0,0,0-5.69-.82,2.31,2.31,0,0,0-4.12-1.88c.2-2-.25-3.58-2.07-4.43a5.7,5.7,0,0,0-4.61,0c-1.85.93-2.38,2-3,4.33-1-1.86-4.05-1.45-5.27.26a3.51,3.51,0,1,0-6.75-.19,2,2,0,0,0-2.94-1.38,6.44,6.44,0,0,0,.55-4,3.56,3.56,0,0,0-2.64-2.77,2.59,2.59,0,0,0-2.77,1.48,2.22,2.22,0,0,0-2.54-2.28,4.11,4.11,0,1,0-6.18-5.2,2.62,2.62,0,0,0-4.07-2.61,6,6,0,0,0-8.56-5.62,4.11,4.11,0,0,0-2.13,1.55,7.9,7.9,0,0,0-.84,2.79,58.31,58.31,0,0,0-.06,18.11C525.3,292.29,525.49,295.64,526.69,296.58Z" transform="translate(0)"/><path id="_Path_129" data-name="&lt;Path&gt;" class="cls-45" d="M412.85,296.66a9.12,9.12,0,0,0,2.09-5.52,60.71,60.71,0,0,0-.68-14.72c-.72-4.25-3-7.78-7.88-7.31a11.53,11.53,0,0,0-6.58,3.3c-1.57,1.47-1.65,3.45-1.41,5.48a2.8,2.8,0,0,0-4.42,1.67,7.73,7.73,0,0,0-2.79-2.33,3.51,3.51,0,0,0-3.49.27,2.3,2.3,0,0,0-.42,3.24,3.6,3.6,0,0,0-3.18.59,2.29,2.29,0,0,0-.46,3,2.75,2.75,0,0,0-4.48,3.12c-.82-1.35-2.93-.66-3.52.59-1.14-1.93-3.5-2.77-5.73-3a6.45,6.45,0,0,0-3.6.48c-2.2,1.14-2.85,3.93-3.26,6.37a6.14,6.14,0,0,0-1.84-1.65c-1.77-.92-3.61.42-4.55,1.94a10.72,10.72,0,0,0-6.94-4c-2.72-.21-5.69,1.42-6.34,4.08a8.21,8.21,0,0,0-3.36-.94,2.81,2.81,0,0,0-2.73,1.81,4.67,4.67,0,0,0-6.83,3.48Z" transform="translate(0)"/><g id="_Group_66" data-name="&lt;Group&gt;"><g id="_Group_67" data-name="&lt;Group&gt;"><polygon id="_Path_130" data-name="&lt;Path&gt;" class="cls-46" points="537.9 264.3 526.04 264.3 526.04 257.06 493.09 216.75 496.56 214.37 527.18 234.17 533.12 257.06 537.9 264.3"/><polygon id="_Path_131" data-name="&lt;Path&gt;" class="cls-47" points="537.9 264.3 531.86 257.78 526.04 257.78 526.04 264.3 537.9 264.3"/><polygon id="_Path_132" data-name="&lt;Path&gt;" class="cls-48" points="460.1 257.06 465.7 234.17 493.74 214.79 524.53 236.31 529.61 257.06 529.61 296.66 460.1 296.66 460.1 257.06"/><rect id="_Rectangle_4" data-name="&lt;Rectangle&gt;" class="cls-49" x="406.61" y="257.06" width="55.52" height="39.6"/><polygon id="_Path_133" data-name="&lt;Path&gt;" class="cls-50" points="405.8 257.06 411.41 234.17 467.73 234.17 462.13 257.06 405.8 257.06"/><polygon id="_Path_134" data-name="&lt;Path&gt;" class="cls-51" points="411.4 234.17 440.23 214.37 496.56 214.37 467.73 234.17 411.4 234.17"/><polygon id="_Path_135" data-name="&lt;Path&gt;" class="cls-51" points="455.1 264.3 398.78 264.3 405.8 257.06 462.13 257.06 455.1 264.3"/><polygon id="_Path_136" data-name="&lt;Path&gt;" class="cls-52" points="499.97 214.37 470.25 234.93 464.67 257.78 458.63 264.3 455.1 264.3 462.13 257.06 467.73 234.17 496.56 214.37 499.97 214.37"/><polygon id="_Path_137" data-name="&lt;Path&gt;" class="cls-52" points="496.56 214.37 526.27 234.93 531.86 257.78 537.9 264.3 541.42 264.3 534.4 257.06 528.8 234.17 499.97 214.37 496.56 214.37"/><polygon id="_Path_138" data-name="&lt;Path&gt;" class="cls-47" points="524.53 236.31 526.27 234.93 498.42 215.47 496.54 216.74 524.53 236.31"/></g><g id="_Group_68" data-name="&lt;Group&gt;"><polygon id="_Path_139" data-name="&lt;Path&gt;" class="cls-47" points="470.28 210.47 468.93 210.47 468.93 209.29 470.28 210.47"/><rect id="_Rectangle_5" data-name="&lt;Rectangle&gt;" class="cls-49" x="447.63" y="208.55" width="11.66" height="9.8"/><polygon id="_Path_140" data-name="&lt;Path&gt;" class="cls-48" points="459.29 218.35 465.51 214.37 468.93 214.37 468.93 208.56 464.11 204.31 459.29 208.56 459.29 218.35"/><polygon id="_Path_141" data-name="&lt;Path&gt;" class="cls-51" points="444.69 209.72 450.86 204.31 464.11 204.31 457.95 209.72 444.69 209.72"/><rect id="_Rectangle_6" data-name="&lt;Rectangle&gt;" class="cls-50" x="444.69" y="209.72" width="13.25" height="0.75"/><polygon id="_Path_142" data-name="&lt;Path&gt;" class="cls-46" points="457.95 210.47 464.11 205.06 464.11 204.31 457.95 209.72 457.95 210.47"/><polygon id="_Path_143" data-name="&lt;Path&gt;" class="cls-46" points="470.28 210.47 464.11 205.06 464.11 204.31 470.28 209.72 470.28 210.47"/></g><rect id="_Rectangle_7" data-name="&lt;Rectangle&gt;" class="cls-53" x="482.24" y="266.56" width="26.66" height="30.1"/><g id="_Group_69" data-name="&lt;Group&gt;"><rect id="_Path_144" data-name="&lt;Path&gt;" class="cls-54" x="481.38" y="267.42" width="1.72" height="29.24"/><rect id="_Rectangle_8" data-name="&lt;Rectangle&gt;" class="cls-54" x="506.32" y="267.42" width="1.72" height="29.24"/><rect id="_Rectangle_9" data-name="&lt;Rectangle&gt;" class="cls-54" x="493.85" y="267.42" width="1.72" height="29.24"/><rect id="_Rectangle_10" data-name="&lt;Rectangle&gt;" class="cls-54" x="493.85" y="254.96" width="1.72" height="26.66" transform="translate(226.43 763) rotate(-90)"/><rect id="_Rectangle_11" data-name="&lt;Rectangle&gt;" class="cls-54" x="493.85" y="269.14" width="1.72" height="26.66" transform="translate(212.24 777.18) rotate(-90)"/><polygon id="_Path_145" data-name="&lt;Path&gt;" class="cls-54" points="506.32 267.42 493.85 282.47 495.57 282.47 508.04 267.42 506.32 267.42"/><polygon id="_Path_146" data-name="&lt;Path&gt;" class="cls-54" points="483.1 267.42 495.57 282.47 493.85 282.47 481.38 267.42 483.1 267.42"/><polygon id="_Path_147" data-name="&lt;Path&gt;" class="cls-54" points="505.61 296.66 493.85 282.47 495.57 282.47 507.33 296.66 505.61 296.66"/><polygon id="_Path_148" data-name="&lt;Path&gt;" class="cls-54" points="483.81 296.66 495.57 282.47 493.85 282.47 482.1 296.66 483.81 296.66"/></g><g id="_Group_70" data-name="&lt;Group&gt;"><rect id="_Rectangle_12" data-name="&lt;Rectangle&gt;" class="cls-51" x="482.24" y="266.56" width="1.72" height="30.1"/><rect id="_Rectangle_13" data-name="&lt;Rectangle&gt;" class="cls-51" x="507.18" y="266.56" width="1.72" height="30.1"/><rect id="_Rectangle_14" data-name="&lt;Rectangle&gt;" class="cls-51" x="494.71" y="266.56" width="1.72" height="30.1"/><rect id="_Rectangle_15" data-name="&lt;Rectangle&gt;" class="cls-51" x="494.71" y="254.1" width="1.72" height="26.66" transform="translate(228.15 763) rotate(-90)"/><rect id="_Rectangle_16" data-name="&lt;Rectangle&gt;" class="cls-51" x="494.71" y="268.28" width="1.72" height="26.66" transform="translate(213.96 777.18) rotate(-90)"/><polygon id="_Path_149" data-name="&lt;Path&gt;" class="cls-51" points="507.18 266.56 494.71 281.61 496.43 281.61 508.9 266.56 507.18 266.56"/><polygon id="_Path_150" data-name="&lt;Path&gt;" class="cls-51" points="483.96 266.56 496.43 281.61 494.71 281.61 482.24 266.56 483.96 266.56"/><polygon id="_Path_151" data-name="&lt;Path&gt;" class="cls-51" points="507.18 296.66 494.71 281.61 496.43 281.61 508.9 296.66 507.18 296.66"/><polygon id="_Path_152" data-name="&lt;Path&gt;" class="cls-51" points="483.96 296.66 496.43 281.61 494.71 281.61 482.24 296.66 483.96 296.66"/></g><rect id="_Rectangle_17" data-name="&lt;Rectangle&gt;" class="cls-53" x="487.58" y="237.69" width="15.98" height="17.54"/><g id="_Group_71" data-name="&lt;Group&gt;"><rect id="_Rectangle_18" data-name="&lt;Rectangle&gt;" class="cls-54" x="494.03" y="247.08" width="1.64" height="15.98" transform="translate(239.78 749.93) rotate(-90)"/><rect id="_Rectangle_19" data-name="&lt;Rectangle&gt;" class="cls-54" x="494.03" y="231.18" width="1.64" height="15.98" transform="translate(255.68 734.03) rotate(-90)"/><rect id="_Rectangle_20" data-name="&lt;Rectangle&gt;" class="cls-54" x="486.86" y="238.36" width="1.64" height="17.54" transform="translate(975.36 494.25) rotate(180)"/><rect id="_Rectangle_21" data-name="&lt;Rectangle&gt;" class="cls-54" x="501.21" y="238.36" width="1.64" height="17.54" transform="translate(1004.05 494.25) rotate(180)"/><polygon id="_Path_153" data-name="&lt;Path&gt;" class="cls-54" points="488.5 238.36 501.21 254.26 501.21 255.9 488.5 240 488.5 238.36"/><polygon id="_Path_154" data-name="&lt;Path&gt;" class="cls-54" points="501.21 238.36 488.5 254.26 488.5 255.9 501.21 240 501.21 238.36"/></g><g id="_Group_72" data-name="&lt;Group&gt;"><rect id="_Rectangle_22" data-name="&lt;Rectangle&gt;" class="cls-51" x="494.75" y="246.42" width="1.64" height="15.98" transform="translate(241.16 749.98) rotate(-90)"/><rect id="_Rectangle_23" data-name="&lt;Rectangle&gt;" class="cls-51" x="494.75" y="230.52" width="1.64" height="15.98" transform="translate(257.06 734.09) rotate(-90)"/><rect id="_Rectangle_24" data-name="&lt;Rectangle&gt;" class="cls-51" x="487.58" y="237.69" width="1.64" height="17.54" transform="translate(976.8 492.93) rotate(180)"/><rect id="_Rectangle_25" data-name="&lt;Rectangle&gt;" class="cls-51" x="501.92" y="237.69" width="1.64" height="17.54" transform="translate(1005.49 492.93) rotate(180)"/><polygon id="_Path_155" data-name="&lt;Path&gt;" class="cls-51" points="489.22 237.69 501.92 253.59 501.92 255.23 489.22 239.33 489.22 237.69"/><polygon id="_Path_156" data-name="&lt;Path&gt;" class="cls-51" points="501.92 237.69 489.22 253.59 489.22 255.23 501.92 239.33 501.92 237.69"/></g><g id="_Group_73" data-name="&lt;Group&gt;"><rect id="_Rectangle_26" data-name="&lt;Rectangle&gt;" class="cls-53" x="420.57" y="274.91" width="10.82" height="11.16"/><g id="_Group_74" data-name="&lt;Group&gt;"><rect id="_Rectangle_27" data-name="&lt;Rectangle&gt;" class="cls-54" x="424.76" y="280.53" width="1.3" height="10.82" transform="translate(139.46 711.35) rotate(-90)"/><rect id="_Rectangle_28" data-name="&lt;Rectangle&gt;" class="cls-54" x="424.76" y="270.68" width="1.3" height="10.82" transform="translate(149.32 701.49) rotate(-90)"/><rect id="_Rectangle_29" data-name="&lt;Rectangle&gt;" class="cls-54" x="420" y="275.44" width="1.3" height="11.16" transform="translate(841.29 562.03) rotate(180)"/><rect id="_Rectangle_30" data-name="&lt;Rectangle&gt;" class="cls-54" x="429.52" y="276.21" width="1.3" height="10.38" transform="translate(860.34 562.81) rotate(180)"/></g><g id="_Group_75" data-name="&lt;Group&gt;"><rect id="_Rectangle_31" data-name="&lt;Rectangle&gt;" class="cls-51" x="425.33" y="280.01" width="1.3" height="10.82" transform="translate(140.56 711.4) rotate(-90)"/><rect id="_Rectangle_32" data-name="&lt;Rectangle&gt;" class="cls-51" x="425.33" y="270.15" width="1.3" height="10.82" transform="translate(150.42 701.54) rotate(-90)"/><rect id="_Rectangle_33" data-name="&lt;Rectangle&gt;" class="cls-51" x="420.57" y="274.91" width="1.3" height="11.16" transform="translate(842.43 560.98) rotate(180)"/><rect id="_Rectangle_34" data-name="&lt;Rectangle&gt;" class="cls-51" x="430.09" y="274.91" width="1.3" height="11.16" transform="translate(861.48 560.98) rotate(180)"/></g><rect id="_Rectangle_35" data-name="&lt;Rectangle&gt;" class="cls-53" x="430.09" y="274.91" width="10.82" height="11.16"/><g id="_Group_76" data-name="&lt;Group&gt;"><rect id="_Rectangle_36" data-name="&lt;Rectangle&gt;" class="cls-54" x="434.56" y="280.82" width="1.3" height="10.25" transform="translate(149.27 721.16) rotate(-90)"/><rect id="_Rectangle_37" data-name="&lt;Rectangle&gt;" class="cls-54" x="434.56" y="270.96" width="1.3" height="10.25" transform="translate(159.13 711.3) rotate(-90)"/><rect id="_Rectangle_38" data-name="&lt;Rectangle&gt;" class="cls-54" x="439.04" y="275.44" width="1.3" height="11.16" transform="translate(879.38 562.03) rotate(180)"/></g><g id="_Group_77" data-name="&lt;Group&gt;"><rect id="_Rectangle_39" data-name="&lt;Rectangle&gt;" class="cls-51" x="434.85" y="280.01" width="1.3" height="10.82" transform="translate(150.08 720.92) rotate(-90)"/><rect id="_Rectangle_40" data-name="&lt;Rectangle&gt;" class="cls-51" x="434.85" y="270.15" width="1.3" height="10.82" transform="translate(159.94 711.06) rotate(-90)"/><rect id="_Rectangle_41" data-name="&lt;Rectangle&gt;" class="cls-51" x="430.09" y="274.91" width="1.3" height="11.16" transform="translate(861.48 560.98) rotate(180)"/><rect id="_Rectangle_42" data-name="&lt;Rectangle&gt;" class="cls-51" x="439.61" y="274.91" width="1.3" height="11.16" transform="translate(880.52 560.98) rotate(180)"/></g></g></g></g><g id="_Group_78" data-name="&lt;Group&gt;"><polyline id="_Path_157" data-name="&lt;Path&gt;" class="cls-55" points="217.59 302.46 227.59 175.88 236.25 175.88 246.25 302.46"/><polyline id="_Path_158" data-name="&lt;Path&gt;" class="cls-55" points="236.25 175.88 226.24 193.03 239.22 213.45 224.62 213.45 237.6 193.03 227.59 175.88"/><line id="_Path_159" data-name="&lt;Path&gt;" class="cls-55" x1="239.22" y1="213.45" x2="222.44" y2="241.09"/><polyline id="_Path_160" data-name="&lt;Path&gt;" class="cls-55" points="241.4 241.09 219.87 273.68 243.98 273.68 222.44 241.09 241.4 241.09 224.62 213.45"/><line id="_Path_161" data-name="&lt;Path&gt;" class="cls-55" x1="219.87" y1="273.68" x2="245.99" y2="299.12"/><line id="_Path_162" data-name="&lt;Path&gt;" class="cls-55" x1="243.98" y1="273.68" x2="217.86" y2="299.12"/><rect id="_Rectangle_43" data-name="&lt;Rectangle&gt;" class="cls-29" x="221.88" y="191.62" width="20.08" height="2.23" rx="1.02" ry="1.02"/><line id="_Path_163" data-name="&lt;Path&gt;" class="cls-55" x1="231.92" y1="175.88" x2="231.92" y2="302.46"/><g id="_Group_79" data-name="&lt;Group&gt;"><circle id="_Path_164" data-name="&lt;Path&gt;" class="cls-29" cx="231.92" cy="156.58" r="1.91"/><path id="_Path_165" data-name="&lt;Path&gt;" class="cls-29" d="M231.92,151.87s-3.09-5.94-1.91-8.75,3.41-4.93,3.81-3.48S231.92,151.87,231.92,151.87Z" transform="translate(0)"/><path id="_Path_166" data-name="&lt;Path&gt;" class="cls-29" d="M229.15,152.77s-6-3-6.68-6-.14-6,1-5.05S229.15,152.77,229.15,152.77Z" transform="translate(0)"/><path id="_Path_167" data-name="&lt;Path&gt;" class="cls-29" d="M227.44,155.12s-6.61,1.1-8.91-.89-3.64-4.77-2.13-4.7S227.44,155.12,227.44,155.12Z" transform="translate(0)"/><path id="_Path_168" data-name="&lt;Path&gt;" class="cls-29" d="M227.44,158s-4.7,4.77-7.73,4.52-5.75-1.72-4.48-2.55S227.44,158,227.44,158Z" transform="translate(0)"/><path id="_Path_169" data-name="&lt;Path&gt;" class="cls-29" d="M229.15,160.39s-1,6.62-3.6,8.2-5.66,2-5.13.57S229.15,160.39,229.15,160.39Z" transform="translate(0)"/><path id="_Path_170" data-name="&lt;Path&gt;" class="cls-29" d="M231.92,161.29s3.09,5.94,1.91,8.75-3.41,4.93-3.81,3.48S231.92,161.29,231.92,161.29Z" transform="translate(0)"/><path id="_Path_171" data-name="&lt;Path&gt;" class="cls-29" d="M234.69,160.39s6,3,6.68,6,.14,6-1,5.05S234.69,160.39,234.69,160.39Z" transform="translate(0)"/><path id="_Path_172" data-name="&lt;Path&gt;" class="cls-29" d="M236.4,158s6.61-1.1,8.91.89,3.64,4.77,2.13,4.7S236.4,158,236.4,158Z" transform="translate(0)"/><path id="_Path_173" data-name="&lt;Path&gt;" class="cls-29" d="M236.4,155.12s4.7-4.77,7.73-4.52,5.75,1.72,4.48,2.55S236.4,155.12,236.4,155.12Z" transform="translate(0)"/><path id="_Path_174" data-name="&lt;Path&gt;" class="cls-29" d="M234.69,152.77s1-6.62,3.6-8.2,5.66-2,5.13-.57S234.69,152.77,234.69,152.77Z" transform="translate(0)"/></g></g></g><g id="_Group_80" data-name="&lt;Group&gt;"><path id="_Path_175" data-name="&lt;Path&gt;" class="cls-56" d="M245.69,302.48c-.19-.06-.54.06-.67-.13s0-.17,0-.24-.55-.24-.75-.26a.28.28,0,0,1-.21-.07.22.22,0,0,1,0-.1.65.65,0,0,1,.07-.41.3.3,0,0,0-.33.3.22.22,0,0,1-.09-.2,1.19,1.19,0,0,1,.09-.48.23.23,0,0,0-.25,0,.44.44,0,0,0-.14.23c-.09.32.06.54.11.84a1,1,0,0,1-.37.79,19.89,19.89,0,0,0-1.62,1.91,1,1,0,0,0-.17.29.7.7,0,0,0,.44.78,2,2,0,0,0,1,.09l.07-.07c.3,0,.54.26.81.39a3.91,3.91,0,0,0,1.14.24,1.23,1.23,0,0,1,1,.58c.06.13.08.27.15.4s.15.21.21.32a1.62,1.62,0,0,1,.1.44,3.84,3.84,0,0,0,.44,1.12,2.4,2.4,0,0,0,.61.83,1.56,1.56,0,0,0,.65.28c.24,0,.48,0,.46.33l-.05.69a.86.86,0,0,0,0,.36c0,.09.09.16.13.25a1.13,1.13,0,0,1,0,.81,6.44,6.44,0,0,1-.62,1.37c0,.07-.08.17,0,.22a.16.16,0,0,0,.09,0,4.86,4.86,0,0,0,.84,0,.4.4,0,0,1,.1-.35c.05,0,.13-.05.17-.1a.32.32,0,0,0,0-.26,3.88,3.88,0,0,1,.38-1.75c0-.06.07-.12.12-.1s.05.05.06.09a1.8,1.8,0,0,1,.06,1.13c-.11.29-.37.5-.46.8a3.35,3.35,0,0,0,.92,0c0-.14,0-.32.15-.37l.11,0c.09-.06,0-.2,0-.3a2.49,2.49,0,0,1-.08-1.1c0-.35,0-.71.09-1.06,0-.19-.05-.62.1-.74a.36.36,0,0,1,.25-.05c1.43.07,2.79.89,4.22.72a7.12,7.12,0,0,0,1.94-.65,1.17,1.17,0,0,1,.89-.12.6.6,0,0,1,.34.39.64.64,0,0,0,.08.23c.05.07.17.09.21,0s0-.12,0-.18a.21.21,0,0,1,.33-.17.28.28,0,0,0,.11.34c.1,0,0-.21.11-.28a.19.19,0,0,1,.09,0,.62.62,0,0,0,.43-.28c0-.1,0-.36.21-.29a.4.4,0,0,1,.21.24,1.59,1.59,0,0,0,.57.82.17.17,0,0,0,0,.23,1.63,1.63,0,0,0,.16.2.89.89,0,0,1,.12.26,5.38,5.38,0,0,1,.26,1.43,1.09,1.09,0,0,1-.27.9c-.11.09-.26.15-.29.29a3,3,0,0,0,.93.09.18.18,0,0,0,.16-.07c0-.05,0-.13,0-.19s.29-.11.38-.23,0-.28,0-.42a1.13,1.13,0,0,1,.12-.45,3.92,3.92,0,0,0,0-.76c0-.48.38-.93.3-1.41a2.48,2.48,0,0,1-.1-.49,1.41,1.41,0,0,1,.06-.27,1.7,1.7,0,0,0-.06-1,.5.5,0,0,1-.05-.25,1.1,1.1,0,0,1,.06-.17.71.71,0,0,0,0-.39c-.06-.23-.13-.47-.18-.7a3.16,3.16,0,0,1,0-.67,13.14,13.14,0,0,0-.13-1.62,3.76,3.76,0,0,0-.18-.89,2.22,2.22,0,0,0-1-1.12c-1-.58-2.08-.26-3.18,0a20,20,0,0,1-2.37.32,14.45,14.45,0,0,1-1.81.09,15.63,15.63,0,0,1-2.1-.27q-2.26-.38-4.53-.66a2.2,2.2,0,0,1-.58-.12C245.93,302.6,245.82,302.52,245.69,302.48Z" transform="translate(0)"/><path id="_Compound_Path_" data-name="&lt;Compound Path&gt;" class="cls-57" d="M292.94,303.17a5.32,5.32,0,0,1,.23-1.09,7.38,7.38,0,0,0,.15-1.69,6,6,0,0,0-.16-1.71,2.39,2.39,0,0,0-1-1.39,4.37,4.37,0,0,0-2.78-.23,26.36,26.36,0,0,1-4,0,27.73,27.73,0,0,0-3.74.13,13.86,13.86,0,0,0-1.43.06,3.5,3.5,0,0,0-1.28.48,3.28,3.28,0,0,0-1.19,1.33,9.16,9.16,0,0,1-.72,1.89c-.11.16-.25.31-.36.48a3.89,3.89,0,0,0-.39,1.58,2,2,0,0,1-.69,1.44.16.16,0,0,1-.15,0,.17.17,0,0,1-.06-.06c-.11-.17-.2-.44-.43-.34l-.06,0c-.16.1-.16.32-.16.49a.92.92,0,0,0,.26.46.31.31,0,0,1,.1.16.26.26,0,0,1,0,.15c-.1.18-.23.33-.31.52a.69.69,0,0,0,0,.58c.07.14.2.24.26.39a.84.84,0,0,1,0,.53l-.22.78c-.06.2-.42.64-.31.84,0,0,.07.09.1.14a.94.94,0,0,1,0,.12c.12.37.65.16.9.11a.91.91,0,0,0,.73-.51,3.49,3.49,0,0,1,.43-.4.94.94,0,0,0,.26-.3,1.59,1.59,0,0,1,.08-.2c.07-.11.19-.16.29-.24a1.07,1.07,0,0,0,.25-.77l.06-1a.13.13,0,0,0,.16,0c.06,0,.11-.06.16-.08a.56.56,0,0,1,.31,0,1.08,1.08,0,0,0,1.18-.42.59.59,0,0,0,.42.48.5.5,0,0,1,.18.06.34.34,0,0,1,.1.2,3.68,3.68,0,0,1-.32,2.49,7.3,7.3,0,0,1-.41.66,1.46,1.46,0,0,0,.89.11.19.19,0,0,0,.14-.07c0-.08,0-.21.05-.27l.09,0c.14,0,.17-.23.18-.38l0-.85a1.71,1.71,0,0,1,.37-1.2,3.2,3.2,0,0,1,.33.8,1.58,1.58,0,0,1-.09,1.2,1.17,1.17,0,0,0-.2.38,2.22,2.22,0,0,0,1,.06c-.06-.13.22-.17.26-.31a.22.22,0,0,0,0-.12,12.34,12.34,0,0,1-.34-1.39,1.45,1.45,0,0,1,0-.46,4.17,4.17,0,0,0,.09-.46,4.88,4.88,0,0,0-.13-.6c0-.17,0-.34,0-.49s-.11-.26-.09-.35a.22.22,0,0,1,.09-.11l.45-.35a.75.75,0,0,1,.18-.12.66.66,0,0,1,.22,0,8.32,8.32,0,0,1,2.63.62l.33.1a2.53,2.53,0,0,0,.86.17,4.92,4.92,0,0,0,.71-.13,2.62,2.62,0,0,1,1.71.26.88.88,0,0,0,.15.68l.1-.15a.24.24,0,0,0,.15.06,2.24,2.24,0,0,0,0-.41.23.23,0,0,1,.28.07.62.62,0,0,1,.11.28,5.53,5.53,0,0,1-.18,2.83,2.55,2.55,0,0,1-.57.89.21.21,0,0,0-.06.1c0,.11.13.16.24.17a.74.74,0,0,0,.64-.16.79.79,0,0,1,.09-.11c.1-.08.25,0,.38,0h.06s0-.1,0-.15a1.19,1.19,0,0,1,.06-.8c.06-.2.62-2.38.68-2.38s.12.12.13.21a1.53,1.53,0,0,0,.25.5,2.32,2.32,0,0,1,.26,1.06c0,.13,0,.25,0,.38s.1.37.11.56a1.27,1.27,0,0,1-.18.63c-.05.1-.26.33-.17.44s.76,0,.87-.16.12-.19.22-.22l.1,0a.15.15,0,0,0,.06-.17.76.76,0,0,0-.08-.17,1.26,1.26,0,0,1-.1-.62q0-.65.07-1.3a4.73,4.73,0,0,1,.07-.6,2.38,2.38,0,0,0,.14-.54,1.38,1.38,0,0,1,0-.2.75.75,0,0,1,.07-.19,2.46,2.46,0,0,0,.2-1.26A10.61,10.61,0,0,1,292.94,303.17Zm-.1-.81-.39,2.45a1,1,0,0,1-.24-.6,9.35,9.35,0,0,1,.2-2.12,8.06,8.06,0,0,1,.29-1.07q.14-.55.23-1.11a.54.54,0,0,1,.06.34A16.73,16.73,0,0,1,292.84,302.36Z" transform="translate(0)"/><path id="_Path_176" data-name="&lt;Path&gt;" class="cls-58" d="M324,289.48a2.88,2.88,0,0,1-.7.35,1.47,1.47,0,0,1-.76,0c-.51-.15-.57-.85-.63-1.28a.11.11,0,0,0,0-.06.07.07,0,0,0-.11,0,.2.2,0,0,0,0,.11,2.52,2.52,0,0,0,.09,1.13.85.85,0,0,0,.54.5,1.79,1.79,0,0,0,.82.19.33.33,0,0,1-.28.27,2.49,2.49,0,0,1-.72-.08,4.82,4.82,0,0,0-1,.09c-.28,0-.56,0-.84,0s-.7,0-1,.08c-.14,0-.3,0-.43,0s-.32.11-.48.15A5,5,0,0,1,317,291a3.2,3.2,0,0,0-.62,0,5.64,5.64,0,0,1-.7,0,8.55,8.55,0,0,1-1.59-.12,5.21,5.21,0,0,0-.53-.08,6.74,6.74,0,0,1-1.41-.05,7.3,7.3,0,0,0-.76-.14l-.89-.17a1.93,1.93,0,0,1-.58-.16,2.51,2.51,0,0,0-1-.17,4.41,4.41,0,0,0-1-.18,1,1,0,0,0-.55.24c-.12.14-.15.34-.3.49a4.08,4.08,0,0,0-.94,1,2.85,2.85,0,0,0-.16,1.3q0,.92.16,1.83a5.49,5.49,0,0,1-.1,2.06c-.07.27-.18.53-.23.8a4.23,4.23,0,0,0,0,1.35c0,.26,0,.85.31,1,.07,0,.13-.59.14-.63a2,2,0,0,0,.15-.7c0-.91,0-1.72,0-2.63a3.59,3.59,0,0,1,.32,3.42c-.08.17-.17.38-.08.54a1,1,0,0,0,.13.16,1.91,1.91,0,0,1,.28,1.09c.06.48.23.95.32,1.42a1.88,1.88,0,0,1-.19,1.41.9.9,0,0,0,.44.05.91.91,0,0,1,.09.47,6.06,6.06,0,0,0,1,0,.36.36,0,0,0,.17,0c.15-.09.1-.32,0-.48l.37-.06a.12.12,0,0,0,.08,0,.11.11,0,0,0,0-.07,1.17,1.17,0,0,0-.34-.63,2.76,2.76,0,0,1-.56-2,3.93,3.93,0,0,1,.15-.69,4.42,4.42,0,0,0,.18-.56,3,3,0,0,1,.14-.62c0-.06.31-.51.3-.53l.1.21c0,.05.06.11.12.11a.12.12,0,0,0,.08,0c.21-.17.12-.53.28-.75s.29-.22.36-.39a.57.57,0,0,1,0-.1.29.29,0,0,1,.11-.09l.29-.17a.2.2,0,0,1,.1,0,.19.19,0,0,1,.09,0c.24.15.44.35.68.49a5.3,5.3,0,0,0,1.17.51,5.53,5.53,0,0,0,1.25.16,13.38,13.38,0,0,0,2.75-.18,2,2,0,0,1,1.25,0,1.52,1.52,0,0,1,.7,1.22,9,9,0,0,0,.16,1.45c.05.18.13.36.19.54a4.48,4.48,0,0,1,.15,1.11,1.36,1.36,0,0,1-.1.75,1.75,1.75,0,0,0-.16.27c-.09.25.09.5.26.7a.37.37,0,0,0,.37.18h.51c.19,0,.45-.05.46-.25s-.12-.26.08-.2a1,1,0,0,0,.44,0,.26.26,0,0,0,.13,0,.21.21,0,0,0,.07-.16c0-.2-.15-.35-.28-.5a2.35,2.35,0,0,1-.46-1.19,1.51,1.51,0,0,1,0-.73,3.93,3.93,0,0,1,.43-.67c.24-.39.07-.85.23-1.24a1.25,1.25,0,0,0,.58.06,3.83,3.83,0,0,0,.42-.17c.18-.06.45-.05.6-.2a.93.93,0,0,0,.13-.2c.23-.4.68-.54.82-1a7.29,7.29,0,0,0,.23-1.29,9.42,9.42,0,0,1,.55-1.61.14.14,0,0,1,.06-.09c.07,0,.14.05.21.09s.28-.09.44-.11.4.2.57.11.15-.25.28-.3.15,0,.22,0a.26.26,0,0,0,.13-.16c.15-.4-.17-.81-.21-1.23a2.34,2.34,0,0,1,0-.51,6.32,6.32,0,0,0,0-1.12.44.44,0,0,1,0-.19c0-.11.17-.21.1-.31.17,0,.34.13.49.19a1.07,1.07,0,0,0,.63.1,1.88,1.88,0,0,0,.33-.17c.23-.13.49-.19.71-.33a.25.25,0,0,0,.1-.1.29.29,0,0,0,0-.24.79.79,0,0,0-.17-.24l-.13-.08-.34-.19a1.18,1.18,0,0,0-.26-.12,1,1,0,0,0-.55,0,1.2,1.2,0,0,1-.38.08c-.17,0-.48-.19-.5-.38a3.1,3.1,0,0,0,1-.2,1.32,1.32,0,0,0,.33-.17,1.45,1.45,0,0,0,.25-.26,2.49,2.49,0,0,0,.6-1.3s0-.07,0-.07,0,0,0,0c-.17.24-.31.5-.48.73a1.7,1.7,0,0,1-.66.56,2.33,2.33,0,0,1-1.06.11.46.46,0,0,1-.26-.09A1.69,1.69,0,0,0,324,289.48Z" transform="translate(0)"/><path id="_Path_177" data-name="&lt;Path&gt;" class="cls-59" d="M187.25,285.9a2.88,2.88,0,0,1-.7.35,1.47,1.47,0,0,1-.76,0c-.51-.15-.57-.85-.63-1.28a.11.11,0,0,0,0-.06.07.07,0,0,0-.11,0,.2.2,0,0,0,0,.11,2.52,2.52,0,0,0,.09,1.13.85.85,0,0,0,.54.5,1.79,1.79,0,0,0,.82.19.33.33,0,0,1-.28.27,2.49,2.49,0,0,1-.72-.08,4.83,4.83,0,0,0-1,.09c-.28,0-.56,0-.84,0s-.7,0-1,.08c-.14,0-.3,0-.43,0s-.32.11-.48.15a5,5,0,0,1-1.43.08,3.2,3.2,0,0,0-.62,0,5.64,5.64,0,0,1-.7,0,8.55,8.55,0,0,1-1.59-.12,5.2,5.2,0,0,0-.53-.08,6.74,6.74,0,0,1-1.41-.05,7.28,7.28,0,0,0-.76-.14l-.89-.17a1.92,1.92,0,0,1-.58-.16,2.52,2.52,0,0,0-1-.17,4.41,4.41,0,0,0-1-.18,1,1,0,0,0-.55.24c-.12.14-.15.34-.3.49a4.08,4.08,0,0,0-.94,1,2.85,2.85,0,0,0-.16,1.3q0,.92.16,1.83a5.49,5.49,0,0,1-.1,2.06c-.07.27-.18.53-.23.8a4.23,4.23,0,0,0,0,1.35c0,.26,0,.85.31,1,.07,0,.13-.59.14-.63a2,2,0,0,0,.15-.7c0-.91,0-1.72,0-2.63a3.59,3.59,0,0,1,.32,3.42c-.08.17-.17.38-.08.54a1,1,0,0,0,.13.16,1.92,1.92,0,0,1,.28,1.09c.06.48.23.95.32,1.42a1.88,1.88,0,0,1-.19,1.41.9.9,0,0,0,.44.05.91.91,0,0,1,.09.47,6.06,6.06,0,0,0,1,0,.36.36,0,0,0,.17,0c.15-.09.1-.32,0-.48l.37-.06a.12.12,0,0,0,.08,0,.11.11,0,0,0,0-.07,1.17,1.17,0,0,0-.34-.63,2.76,2.76,0,0,1-.56-2,3.92,3.92,0,0,1,.15-.69,4.44,4.44,0,0,0,.18-.56,3,3,0,0,1,.14-.62c0-.06.31-.51.3-.53l.1.21c0,.05.06.11.12.11a.12.12,0,0,0,.08,0c.21-.17.12-.53.28-.75s.29-.22.36-.39a.57.57,0,0,1,0-.1.29.29,0,0,1,.11-.09l.29-.17a.2.2,0,0,1,.1,0,.2.2,0,0,1,.09,0c.24.15.44.35.68.49a5.3,5.3,0,0,0,1.17.51,5.54,5.54,0,0,0,1.25.16,13.37,13.37,0,0,0,2.75-.18,2,2,0,0,1,1.25,0,1.52,1.52,0,0,1,.7,1.22,9,9,0,0,0,.16,1.45c.05.18.13.36.19.54a4.48,4.48,0,0,1,.15,1.11,1.36,1.36,0,0,1-.1.75,1.75,1.75,0,0,0-.16.27c-.09.25.09.5.26.7a.37.37,0,0,0,.37.18h.51c.19,0,.45-.05.46-.25s-.12-.26.08-.2a1,1,0,0,0,.44,0,.26.26,0,0,0,.13,0,.21.21,0,0,0,.07-.16c0-.2-.15-.35-.28-.5a2.35,2.35,0,0,1-.46-1.19,1.51,1.51,0,0,1,0-.73,3.94,3.94,0,0,1,.43-.67c.24-.39.07-.85.23-1.24a1.25,1.25,0,0,0,.58.06,3.84,3.84,0,0,0,.42-.17c.18-.06.45-.05.6-.2a.93.93,0,0,0,.13-.2c.23-.4.68-.54.82-1a7.28,7.28,0,0,0,.23-1.29,9.43,9.43,0,0,1,.55-1.61.15.15,0,0,1,.06-.09c.07,0,.14.05.21.09s.28-.09.44-.11.4.2.57.11.15-.25.28-.3.15,0,.22,0a.26.26,0,0,0,.13-.16c.15-.4-.17-.81-.21-1.23a2.35,2.35,0,0,1,0-.51,6.31,6.31,0,0,0,0-1.12.44.44,0,0,1,0-.19c0-.11.17-.21.1-.31.17,0,.34.13.49.19a1.07,1.07,0,0,0,.63.1,1.89,1.89,0,0,0,.33-.17c.23-.13.49-.19.71-.33a.25.25,0,0,0,.1-.1.29.29,0,0,0,0-.24.79.79,0,0,0-.17-.24l-.13-.08-.34-.19a1.18,1.18,0,0,0-.26-.12,1,1,0,0,0-.55,0,1.2,1.2,0,0,1-.38.08c-.17,0-.48-.19-.5-.38a3.1,3.1,0,0,0,1-.2,1.32,1.32,0,0,0,.33-.17,1.45,1.45,0,0,0,.25-.26,2.49,2.49,0,0,0,.6-1.3s0-.07,0-.07,0,0,0,0c-.17.24-.31.5-.48.73a1.7,1.7,0,0,1-.66.56,2.33,2.33,0,0,1-1.06.11.46.46,0,0,1-.26-.09A1.69,1.69,0,0,0,187.25,285.9Z" transform="translate(0)"/><path id="_Path_178" data-name="&lt;Path&gt;" class="cls-60" d="M197,312.26c0,.05-.06.23-.07.29a2.77,2.77,0,0,0,0,.33,6.33,6.33,0,0,0,0,.67,5.14,5.14,0,0,0,.14,1.32.64.64,0,0,0,.09.19s.08.08.11.13,0,.28.06.42.24.4.21.62l-.67.06c-.22,0-.48,0-.6-.16s-.08-.37-.22-.47-.22-.05-.29-.12a.27.27,0,0,1,0-.35c.07-.1.18-.18.25-.28a1,1,0,0,0,.07-.75c-.1-.59-.22-1.18-.27-1.77a2.35,2.35,0,0,0-.2-1,.87.87,0,0,1-.12-.22.6.6,0,0,1,.09-.41,9.16,9.16,0,0,0,.56-1.19,3.82,3.82,0,0,0-.43-2.46,5.42,5.42,0,0,1-.59-2.09,6.22,6.22,0,0,0-.1,1.86c0,.73-.08,1.48,0,2.21a6.85,6.85,0,0,1,.24.92c0,.34-.31.66-.21,1a1.32,1.32,0,0,0,.1.21,1.56,1.56,0,0,1,.06,1,2.57,2.57,0,0,0,.07.88s0,0,0,0,0,0,0,0-.21-.25-.28-.26-.1.19-.18.1a.19.19,0,0,1,0-.08,3.5,3.5,0,0,1-.12-.58c0-.27-.12-.52-.13-.79a5.56,5.56,0,0,0,0-1c0-.11-.07-.22-.1-.34a2.44,2.44,0,0,1,.21-1.14,4.11,4.11,0,0,0,0-1.07c0-.85,0-1.7-.06-2.55a16,16,0,0,1,0-1.86c0-.28.08-.57.12-.84a1.26,1.26,0,0,1,.43-.69q.25-.25.52-.48c.54-.46,1.46-.25,2.12-.28s1.17-.15,1.76-.14a9.52,9.52,0,0,1,1.79.32c1.25.25,2.51.49,3.78.65a20.71,20.71,0,0,0,2.84.17c.49,0,1-.05,1.45-.09s.82-.17,1.25-.17,1.09.13,1.63.09c.34,0,.67-.12,1-.12s.6.08.9.08c.59,0,.79-.39,1.2-.69a.84.84,0,0,1,1.13.16,1.08,1.08,0,0,0,.26.33c.12.07.28.06.41.13s.24.4.45.49a.76.76,0,0,0,.52-.07,1.54,1.54,0,0,1,1.19.11.13.13,0,0,1,.08.2,1.5,1.5,0,0,1-1.61.86c-.11,0-.24,0-.3,0a.27.27,0,0,0,0,.11l-.45,2a.79.79,0,0,0,0,.23.85.85,0,0,0,.1.29,1,1,0,0,1,.13.58.71.71,0,0,1-.46.5,2.11,2.11,0,0,1-.7.1.85.85,0,0,1-.33,0c-.17-.06-.28-.23-.45-.28a.53.53,0,0,0-.57.27,1.54,1.54,0,0,0-.17.65s0,0,0,.05a.33.33,0,0,0,.18,0,6.84,6.84,0,0,0,1,0c.26,0,.48-.17.75-.16a.85.85,0,0,1,.6.24,1.94,1.94,0,0,1,.31-.17,3,3,0,0,1,.46-.23.85.85,0,0,1,.88.25.25.25,0,0,0,.08.07.2.2,0,0,0,.11,0,3.86,3.86,0,0,0,.63-.18,1,1,0,0,1,.64,0c.09,0,.19.13.17.23a.27.27,0,0,1-.06.12,1.38,1.38,0,0,1-1.18.54.17.17,0,0,0-.14,0,.16.16,0,0,0,0,.08,3.81,3.81,0,0,0-.21.84c0,.28,0,.62-.17.81a.56.56,0,0,1-.57.07.39.39,0,0,0-.14,0c-.18,0-.21.25-.26.43a1.5,1.5,0,0,1-.66.72,3.58,3.58,0,0,0-.46.39c-.12.13-.21.27-.38.33a.24.24,0,0,0-.1,0,.2.2,0,0,0,0,.12l-.07.55a1.57,1.57,0,0,0,0,.23c0,.19.08.37.06.56a3.24,3.24,0,0,1-.13.55,4,4,0,0,0-.14,1.13.63.63,0,0,0,0,.27.94.94,0,0,0,.16.2,1.34,1.34,0,0,1,.32.52c0,.26-.46.19-.65.2a.28.28,0,0,1-.19,0c-.07-.05-.08-.16-.14-.22s-.25-.17-.14-.4a2.61,2.61,0,0,0,.15-1.27.81.81,0,0,0-.06-.33,2.54,2.54,0,0,0-.15-.22c-.2-.31-.07-.74-.22-1.08-.07-.16-.19-.29-.25-.45a4.37,4.37,0,0,0-.11-.45c-.07-.13-.21-.18-.34-.26a.68.68,0,0,0-.21-.1.85.85,0,0,0-.31,0,1.77,1.77,0,0,1-.78,0,.31.31,0,0,0-.23,0c-.06,0-.09.09-.13.14s-.3.06-.44,0a3.33,3.33,0,0,1-.62-.36c-.11.15,0,.36.05.55a1,1,0,0,1-.14.46,3.43,3.43,0,0,0-.18,1.34.32.32,0,0,0,0,.18.37.37,0,0,0,.13.1,1.12,1.12,0,0,1,.54,1l-.55,0c-.16,0-.38,0-.42-.18s0-.1,0-.15-.18-.13-.28-.2a.45.45,0,0,1-.18-.32,1.68,1.68,0,0,1,0-.38,4.42,4.42,0,0,0-.21-1.79,1,1,0,0,0-.49.48,6.42,6.42,0,0,1-.42.67.22.22,0,0,0-.06.12.21.21,0,0,0,0,.11c.13.19.3.36.43.55a1.07,1.07,0,0,1,.23.64,2.91,2.91,0,0,1-.78,0,.12.12,0,0,0-.09,0,.11.11,0,0,0,0,0,.93.93,0,0,0,.1.86c.07.1.16.19.23.29a.44.44,0,0,1,.08.35,6.66,6.66,0,0,1-1,0,.22.22,0,0,1-.11,0c-.11-.07,0-.27-.13-.36s-.13,0-.18-.09-.06-.19,0-.29c.14-.33-.12-.66,0-1a2,2,0,0,1,.13-.28,3.44,3.44,0,0,0,0-1.62.68.68,0,0,1,0-.27c0-.13.16-.22.22-.34a1.09,1.09,0,0,0,0-.67,6.45,6.45,0,0,1,0-1.42,31,31,0,0,0-3.29.19,9.09,9.09,0,0,1-3.75-.53.34.34,0,0,0-.15,0,.35.35,0,0,0-.17.08c-.17.12-.36.28-.36.49a.71.71,0,0,0,.07.25,4.18,4.18,0,0,1,.17.5.49.49,0,0,1,0,.23.18.18,0,0,1-.15.15c-.09,0-.15-.07-.21-.14l-.49-.63a.12.12,0,0,0-.08-.06l-.07,0-.61.37.11.83a.26.26,0,0,1,0,.15.18.18,0,0,1-.25.06A.53.53,0,0,1,199,312l-.34-.56a.44.44,0,0,0-.12.33,7.37,7.37,0,0,0,.22,2,2,2,0,0,0,.22.66,6.67,6.67,0,0,1,.41.54c.12.25.1.57.28.79a1.72,1.72,0,0,0,.28.25.53.53,0,0,1,.21.3c.07.39-1,.26-1.24.26a.32.32,0,0,1-.16,0c-.1-.06-.11-.2-.13-.31a.63.63,0,0,0-.38-.44l-.14-.06a.35.35,0,0,1-.12-.32c0-.12,0-.23,0-.35a1,1,0,0,0-.06-.29,3.93,3.93,0,0,0-.31-.8A8,8,0,0,1,197,312.26Z" transform="translate(0)"/><path id="_Compound_Path_2" data-name="&lt;Compound Path&gt;" class="cls-61" d="M602.8,286.65v-4.11h-1.93V281c.33-.12.33-.4.33-.72V278a.77.77,0,0,0-.47-.73c0-.63,0-2,.1-2.57s.87-.44.88-.44l.05-.6c-.48,0-1.43.1-1.54,1-.08.63-.09,2-.09,2.64a.8.8,0,0,0-.5.73v2.24a.83.83,0,0,0,.62.77v1.53h-3.64l-.48,2a8.61,8.61,0,0,0-5.83,3.25,8.42,8.42,0,0,1-4-1.29l3-3,1.49,1.49a.5.5,0,1,0,.71-.7l-3.57-3.57a.5.5,0,0,0-.7.7l1.49,1.49L585.65,286a5.76,5.76,0,0,1-.54-.53v-5.19a.86.86,0,0,0-.86-.86h0a.86.86,0,0,0-.86.86v3.87H574a1.71,1.71,0,0,0-1.67,1.28h-.75v2.83h.64V290a6,6,0,0,0-4.43,6.23,6.05,6.05,0,0,0,5.87,5.53,6,6,0,0,0,5.78-7.8h9.08a8.62,8.62,0,1,0,14.29-7.27Z" transform="translate(0)"/></g></g></g></g></svg>