<svg xmlns="http://www.w3.org/2000/svg" viewBox="0 0 349.29 202.75"><defs><style>.cls-1{fill:#020202;}.cls-2{font-size:52px;}.cls-2,.cls-5,.cls-6{fill:#231f20;}.cls-2,.cls-6{font-family:MyriadPro-Regular, Myriad Pro;}.cls-3{letter-spacing:-0.01em;}.cls-4{fill:none;stroke:#231f20;stroke-miterlimit:10;}.cls-6{font-size:21px;}.cls-7{letter-spacing:-0.01em;}.cls-8{letter-spacing:-0.01em;}.cls-9{letter-spacing:0em;}.cls-10{letter-spacing:-0.01em;}.cls-11{letter-spacing:-0.03em;}.cls-12{letter-spacing:0.01em;}</style></defs><title>logo</title><g id="Layer_1" data-name="Layer 1"><path class="cls-1" d="M292.53,190.26c-6.88-16.53-18.93-27.95-37.8-29.84-11.34-1.14-21.53,1.55-29.36,10.45-5.85,6.64-8.94,14.68-11,23.09-4.17,16.74-4.37,33.83-4,50.95,0,.93.07,1.86.13,2.79q.72,12.55.84,25.13c0,1.83-.53,2.39-2.27,2.15-2.76-.38-5.57-.46-8.3-1-16.46-3.29-27.64-12.52-31.88-29.13-2-7.91-1.47-16-.29-24,2.59-17.64,10.95-31,28-38.1a2.47,2.47,0,0,0,1.64-1.41c1.87-4.84,3.36-9.75,3.12-15-.22-4.9-2.49-7-7.42-6.86a31.44,31.44,0,0,0-18.09,6.42c-7.51,5.42-12.76,12.77-17.43,20.57-7.83,13.07-12.69,27-12.28,42.5.57,21.72,10.24,37.56,30,47,10.17,4.87,21.05,7.2,32.15,8.64,1.38.18,2.13.35,1.9,2.1-1.19,8.79-2.55,17.55-4.13,26.29-1.07,5.9-2.05,11.84-1.3,17.88.73,5.84,3.85,8.65,9.6,8.65,2.12,0,4.25-.14,6.35,0,4.48.37,5.87-.75,7.5-5.72,1.79-5.47.87-11.08.22-16.61-1.14-9.82-2.75-19.59-3.73-29.43-.24-2.39.21-3.43,2.85-3.6a96.06,96.06,0,0,0,23.05-4.56c14-4.5,26.48-11.63,35.13-23.74C300.17,235.5,302,213.1,292.53,190.26ZM257,257.68c-8.29,9.26-18.68,14.87-30.68,17.7-1.45.34-2,0-1.92-1.51.06-1-.23-2-.23-3,0-15.92-1.18-31.83-.56-47.75.45-11.58,1.48-23.13,5.47-34.16,2-5.47,4.63-10.59,9.59-14,7.94-5.48,18.84-3.55,24.86,4.48,5.63,7.51,8.26,16.18,9.21,25.41.25,2.44.35,4.89.43,6.17C273,229.19,268.57,244.72,257,257.68Z" transform="translate(-114.67 -159.5)"/></g><g id="Layer_2" data-name="Layer 2"><text class="cls-2" transform="translate(123.33 169.5)"><tspan class="cls-3">r</tspan><tspan x="16.48" y="0">ed</tspan></text><text class="cls-2" transform="translate(224.33 169.5)">tid</text><path class="cls-4" d="M308.35,307.79s4.92-8.26,7.36-7.36c5.52,2,1.84,24.52,12.57,19.92,0,0-12,12-13.79-14.1Z" transform="translate(-114.67 -159.5)"/><path class="cls-4" d="M318.47,294.3l-.61,0v4.29l.61,0c7.62,0,13.79,6.45,13.79,14.41s-6.17,14.41-13.79,14.41l-.61,0v4.29l.61,0a18.7,18.7,0,0,0,0-37.39Z" transform="translate(-114.67 -159.5)"/><circle class="cls-5" cx="199.12" cy="136.54" r="2.63"/><text class="cls-6" transform="translate(0 197.5)">Sis<tspan class="cls-7" x="23.58" y="0">t</tspan><tspan x="30.41" y="0">em p</tspan><tspan class="cls-8" x="74.84" y="0">r</tspan><tspan class="cls-9" x="81.5" y="0">ediksi Ha</tspan><tspan class="cls-10" x="160.12" y="0">r</tspan><tspan x="166.82" y="0">ga </tspan><tspan class="cls-11" x="193.13" y="0">P</tspan><tspan x="203.76" y="0">angan </tspan><tspan class="cls-12" x="263.5" y="0">I</tspan><tspan x="268.73" y="0">ndonesia</tspan></text></g></svg>