<svg id="Layer_1" data-name="Layer 1" xmlns="http://www.w3.org/2000/svg" xmlns:xlink="http://www.w3.org/1999/xlink" viewBox="0 0 841.89 595.28"><defs><style>.cls-1,.cls-14{stroke:#231f20;stroke-miterlimit:10;}.cls-1{fill:url(#linear-gradient);}.cls-2{fill:#edf7f7;}.cls-3{fill:#dff0f4;}.cls-4{fill:#d0ecf4;}.cls-5{fill:url(#linear-gradient-2);}.cls-6{fill:url(#linear-gradient-3);}.cls-7{fill:url(#linear-gradient-4);}.cls-8{fill:#78b1c4;}.cls-9{fill:#8abfcd;}.cls-10{fill:#8fc6dc;}.cls-11{fill:#42572a;}.cls-12{fill:#2c3a1b;}.cls-13{fill:#5b7f3b;}.cls-14{fill:#fff;}.cls-15{fill:#e9bb74;}.cls-16{fill:url(#Degradado_sin_nombre_89);}.cls-17{fill:#39b54a;}.cls-18{fill:url(#Degradado_sin_nombre_89-2);}.cls-19{fill:#87c663;}.cls-20{fill:url(#Degradado_sin_nombre_89-3);}.cls-21{fill:#93b15b;}.cls-22{fill:url(#Degradado_sin_nombre_89-4);}.cls-23{fill:url(#Degradado_sin_nombre_89-5);}.cls-24{fill:url(#Degradado_sin_nombre_89-6);}.cls-25{fill:url(#Degradado_sin_nombre_89-7);}.cls-26{fill:url(#Degradado_sin_nombre_89-8);}.cls-27{fill:url(#Degradado_sin_nombre_89-9);}.cls-28{fill:#48b749;}.cls-29{fill:url(#Degradado_sin_nombre_89-10);}.cls-30{fill:#009542;}</style><linearGradient id="linear-gradient" x1="416.56" y1="151.81" x2="422.56" y2="406.81" gradientUnits="userSpaceOnUse"><stop offset="0" stop-color="#d0ecf4"/><stop offset="0.28" stop-color="#92d7e7"/><stop offset="0.72" stop-color="#5bc9e1"/><stop offset="1" stop-color="#00bbd6"/></linearGradient><linearGradient id="linear-gradient-2" x1="554.62" y1="227.41" x2="555.08" y2="246.72" gradientUnits="userSpaceOnUse"><stop offset="0" stop-color="#d0ecf4"/><stop offset="0.6" stop-color="#92d7e7"/><stop offset="1" stop-color="#4bb3ca"/></linearGradient><linearGradient id="linear-gradient-3" x1="722.63" y1="253.23" x2="723.08" y2="272.53" gradientTransform="translate(38.75 -86.06) rotate(7.01)" xlink:href="#linear-gradient-2"/><linearGradient id="linear-gradient-4" x1="114.74" y1="187.01" x2="115.07" y2="201.14" gradientTransform="translate(-41 35.74) rotate(-11.84)" gradientUnits="userSpaceOnUse"><stop offset="0" stop-color="#d0ecf4"/><stop offset="0.73" stop-color="#92d7e7"/><stop offset="1" stop-color="#5bc9e1"/></linearGradient><linearGradient id="Degradado_sin_nombre_89" x1="-1" y1="440" x2="842" y2="440" gradientUnits="userSpaceOnUse"><stop offset="0" stop-color="#ac483d"/><stop offset="0.26" stop-color="#913f33"/><stop offset="0.75" stop-color="#653022"/><stop offset="1" stop-color="#542a1b"/></linearGradient><linearGradient id="Degradado_sin_nombre_89-2" y1="437.16" x2="287.53" y2="437.16" xlink:href="#Degradado_sin_nombre_89"/><linearGradient id="Degradado_sin_nombre_89-3" y1="376.53" x2="225.92" y2="376.53" xlink:href="#Degradado_sin_nombre_89"/><linearGradient id="Degradado_sin_nombre_89-4" x1="89.75" y1="446.07" x2="841" y2="446.07" xlink:href="#Degradado_sin_nombre_89"/><linearGradient id="Degradado_sin_nombre_89-5" x1="784.48" y1="487.48" x2="784.48" y2="505.7" xlink:href="#Degradado_sin_nombre_89"/><linearGradient id="Degradado_sin_nombre_89-6" x1="818.48" y1="520.81" x2="818.48" y2="539.04" xlink:href="#Degradado_sin_nombre_89"/><linearGradient id="Degradado_sin_nombre_89-7" x1="770.48" y1="520.81" x2="770.48" y2="539.04" xlink:href="#Degradado_sin_nombre_89"/><linearGradient id="Degradado_sin_nombre_89-8" x1="704.07" y1="534.05" x2="704.07" y2="559.43" xlink:href="#Degradado_sin_nombre_89"/><linearGradient id="Degradado_sin_nombre_89-9" x1="762.07" y1="547.05" x2="762.07" y2="572.43" xlink:href="#Degradado_sin_nombre_89"/><linearGradient id="Degradado_sin_nombre_89-10" y1="345.94" x2="150.5" y2="345.94" xlink:href="#Degradado_sin_nombre_89"/></defs><title>siang</title><rect class="cls-1" x="-1" y="1" width="842" height="594"/><path class="cls-2" d="M685.76,194.08a16.93,16.93,0,0,0-6.28.34c.38-12.57-6.85-23.3-17.17-24.7-9.71-1.31-19,6.07-22.51,17.12a28.37,28.37,0,0,0-28.33-4.05c.34-12.83-11.27-24.49-27-26.63a35.61,35.61,0,0,0-15.53,1.27c-3.53-16.37-21-30.43-43.69-33.49-26.14-3.53-49.56,8.86-53.63,27.92a33.86,33.86,0,0,0-10.74-3.32A32.59,32.59,0,0,0,437.68,154a26.93,26.93,0,0,0-21.63-17.54,27.5,27.5,0,0,0-7.37,54.5,26.65,26.65,0,0,0,19.58-5.12c4,9.37,13.38,16.64,25.07,18.22,14.95,2,28.7-5.94,33.18-18.34a60.76,60.76,0,0,0,28.79,11.58c14.47,2,28.1-1,38.08-7.2,4.29,8,13.29,14.15,24.35,15.64a34.55,34.55,0,0,0,20.46-3.3c.55,10.38,9.72,19.49,22,21.16,10,1.36,19.35-2.6,24.24-9.44a17.28,17.28,0,0,0,23.26,3.15,17,17,0,1,0,18-23.2Z"/><path class="cls-3" d="M524.51,163a16.93,16.93,0,0,0-6.18,1.18C517,151.68,508.43,142,498,142c-9.8,0-18,8.55-20,20a28.37,28.37,0,0,0-28.61-.22C448,149,434.94,139,419,139a35.61,35.61,0,0,0-15.22,3.34C398.11,126.61,378.88,115,356,115c-26.37,0-47.92,15.42-49.41,34.85A33.86,33.86,0,0,0,295.51,148a32.59,32.59,0,0,0-22.21,8.48A26.93,26.93,0,0,0,249.51,142a27.5,27.5,0,0,0,0,55,26.65,26.65,0,0,0,18.72-7.69c5.24,8.75,15.49,14.69,27.28,14.69,15.08,0,27.64-9.73,30.42-22.62A60.76,60.76,0,0,0,356,189c14.6,0,27.71-4.72,36.77-12.24C398.11,184.11,407.86,189,419,189a34.55,34.55,0,0,0,19.83-6c1.94,10.22,12.24,18,24.67,18,10.12,0,18.82-5.17,22.76-12.6a17.28,17.28,0,0,0,23.48,0A17,17,0,1,0,524.51,163Z"/><path class="cls-2" d="M310,121.93a16.93,16.93,0,0,0-5.7,2.66c-4.34-11.81-15-19.07-25.14-16.51-9.5,2.41-15.34,12.71-14.5,24.28a28.37,28.37,0,0,0-27.79,6.81c-4.47-12-19.59-18.52-35-14.61a35.61,35.61,0,0,0-13.93,7c-9.38-13.87-30.87-20.38-53-14.77-25.57,6.47-42.67,26.71-39.34,45.92a33.86,33.86,0,0,0-11.2.93,32.59,32.59,0,0,0-19.45,13.67,26.93,26.93,0,0,0-26.61-8.2,27.5,27.5,0,0,0,13.5,53.32A26.65,26.65,0,0,0,68,210.34c7.23,7.19,18.63,10.44,30.05,7.55,14.62-3.7,24.41-16.22,23.94-29.4a60.76,60.76,0,0,0,31,0c14.15-3.58,25.71-11.38,32.65-20.89,7,5.8,17.61,8.16,28.43,5.43a34.55,34.55,0,0,0,17.75-10.7c4.39,9.43,16.29,14.46,28.34,11.41,9.81-2.48,17-9.63,19-17.8a17.28,17.28,0,0,0,22.76-5.76A17,17,0,1,0,310,121.93Z"/><path class="cls-4" d="M462,188a16.93,16.93,0,0,0-6.18,1.18C454.51,176.66,445.92,167,435.5,167c-9.8,0-18,8.55-20,20a28.37,28.37,0,0,0-28.61-.22C385.49,174,372.42,164,356.5,164a35.61,35.61,0,0,0-15.22,3.34C335.6,151.59,316.36,140,293.5,140c-26.37,0-47.92,15.42-49.41,34.85A33.86,33.86,0,0,0,233,173a32.59,32.59,0,0,0-22.21,8.48A26.93,26.93,0,0,0,187,167a27.5,27.5,0,0,0,0,55,26.65,26.65,0,0,0,18.72-7.69C211,223.06,221.21,229,233,229c15.08,0,27.64-9.73,30.42-22.62A60.76,60.76,0,0,0,293.5,214c14.6,0,27.71-4.72,36.77-12.24,5.32,7.33,15.07,12.24,26.23,12.24a34.55,34.55,0,0,0,19.83-6c1.94,10.22,12.24,18,24.67,18,10.12,0,18.82-5.17,22.76-12.6a17.28,17.28,0,0,0,23.48,0A17,17,0,1,0,462,188Z"/><path class="cls-4" d="M688.51,222a16.93,16.93,0,0,0-6.18,1.18C681,210.68,672.43,201,662,201c-9.8,0-18,8.55-20,20a28.37,28.37,0,0,0-28.61-.22C612,208,598.94,198,583,198a35.61,35.61,0,0,0-15.22,3.34C562.11,185.61,542.88,174,520,174c-26.37,0-47.92,15.42-49.41,34.85A33.86,33.86,0,0,0,459.51,207a32.59,32.59,0,0,0-22.21,8.48A26.93,26.93,0,0,0,413.51,201a27.5,27.5,0,0,0,0,55,26.65,26.65,0,0,0,18.72-7.69c5.24,8.75,15.49,14.69,27.28,14.69,15.08,0,27.64-9.73,30.42-22.62A60.76,60.76,0,0,0,520,248c14.6,0,27.71-4.72,36.77-12.24C562.11,243.11,571.86,248,583,248a34.55,34.55,0,0,0,19.83-6c1.94,10.22,12.24,18,24.67,18,10.12,0,18.82-5.17,22.76-12.6a17.28,17.28,0,0,0,23.48,0A17,17,0,1,0,688.51,222Z"/><path class="cls-4" d="M823.51,256a16.93,16.93,0,0,0-6.18,1.18C816,244.68,807.43,235,797,235c-9.8,0-18,8.55-20,20a28.37,28.37,0,0,0-28.61-.22C747,242,733.94,232,718,232a35.61,35.61,0,0,0-15.22,3.34C697.11,219.61,677.88,208,655,208c-26.37,0-47.92,15.42-49.41,34.85A33.86,33.86,0,0,0,594.51,241a32.59,32.59,0,0,0-22.21,8.48A26.93,26.93,0,0,0,548.51,235a27.5,27.5,0,0,0,0,55,26.65,26.65,0,0,0,18.72-7.69c5.24,8.75,15.49,14.69,27.28,14.69,15.08,0,27.64-9.73,30.42-22.62A60.76,60.76,0,0,0,655,282c14.6,0,27.71-4.72,36.77-12.24C697.11,277.11,706.86,282,718,282a34.55,34.55,0,0,0,19.83-6c1.94,10.22,12.24,18,24.67,18,10.12,0,18.82-5.17,22.76-12.6a17.28,17.28,0,0,0,23.48,0A17,17,0,1,0,823.51,256Z"/><path class="cls-5" d="M655.33,236c-5.44,0-10.19,1.74-12.82,4.34a13.48,13.48,0,0,0-8.85-3,14.31,14.31,0,0,0-7.39,1.94,8.11,8.11,0,0,0,.06-.94c0-5.34-5.22-9.67-11.67-9.67a13.57,13.57,0,0,0-5.42,1.11c-2.92-3.86-8.2-6.44-14.25-6.44s-11.17,2.51-14.12,6.27c-4.54-8.35-15.9-14.27-29.22-14.27-14.29,0-26.33,6.82-30.1,16.14a18.89,18.89,0,0,0-2.23-.14,16,16,0,0,0-9,2.55c-4-7.75-13.53-13.21-24.66-13.21-12.11,0-22.34,6.46-25.58,15.31a20.5,20.5,0,0,0-7.42-1.31c-7.18,0-13,3.28-13,7.33s5.82,7.33,13,7.33a20.5,20.5,0,0,0,7.42-1.31c3.25,8.85,13.47,15.31,25.58,15.31,13.14,0,24.06-7.61,26.25-17.62a17,17,0,0,0,7.41,1.62,18.49,18.49,0,0,0,3.83-.4C528.1,254.64,539,260,551.67,260c14,0,25.8-6.52,29.84-15.52A18.2,18.2,0,0,0,595,250a18.73,18.73,0,0,0,12.18-4.25,13.51,13.51,0,0,0,15.17-.15c.2,4.3,5.18,7.74,11.31,7.74a13.23,13.23,0,0,0,9.19-3.34c2.69,2.41,7.27,4,12.47,4,8.28,0,15-4,15-9S663.62,236,655.33,236Z"/><path class="cls-6" d="M824,274.27c-5.4-.66-10.32.49-13.25,2.75a13.48,13.48,0,0,0-8.42-4.07,14.31,14.31,0,0,0-7.57,1,8.11,8.11,0,0,0,.17-.93c.65-5.3-4-10.23-10.4-11a13.57,13.57,0,0,0-5.51.44c-2.43-4.18-7.35-7.4-13.36-8.13s-11.39,1.13-14.77,4.5c-3.49-8.84-14-16.1-27.26-17.73-14.18-1.74-27,3.55-31.85,12.34a18.89,18.89,0,0,0-2.2-.41,16,16,0,0,0-9.25,1.43c-3-8.18-11.82-14.76-22.86-16.12-12-1.48-23,3.69-27.26,12.08a20.5,20.5,0,0,0-7.2-2.21c-7.13-.88-13.3,1.67-13.8,5.69s4.88,8,12,8.86a20.5,20.5,0,0,0,7.52-.4c2.14,9.18,11.5,16.84,23.52,18.32,13,1.6,24.8-4.62,28.21-14.28a17,17,0,0,0,7.16,2.51,18.49,18.49,0,0,0,3.85.07c4,8.25,14.13,14.9,26.7,16.45,13.87,1.7,26.41-3.32,31.52-11.77a18.2,18.2,0,0,0,12.71,7.13A18.73,18.73,0,0,0,775,278.06a13.51,13.51,0,0,0,15.07,1.7c-.33,4.29,4.2,8.31,10.29,9.06a13.23,13.23,0,0,0,9.53-2.19c2.38,2.72,6.73,4.86,11.89,5.49,8.22,1,15.38-2.17,16-7.1S832.21,275.28,824,274.27Z"/><path class="cls-7" d="M226.59,188.25c-2.94-2.59-8.52-3.66-14.49-2.41-5.32,1.12-9.61,3.8-11.65,6.88a13.48,13.48,0,0,0-9.28-1.13,14.31,14.31,0,0,0-6.84,3.42,8.11,8.11,0,0,0-.14-.94c-1.1-5.23-7.1-8.39-13.4-7.07a13.57,13.57,0,0,0-5.08,2.2c-3.65-3.18-9.35-4.62-15.27-3.38s-10.42,4.75-12.53,9c-6.15-7.24-18.49-10.7-31.52-8-14,2.93-24.37,12.08-26.15,22a18.89,18.89,0,0,0-2.21.32,16,16,0,0,0-8.29,4.34c-5.5-6.77-16-10.16-26.85-7.87C31,208.12,22.36,216.54,21,225.87a20.5,20.5,0,0,0-7.53.23C6.83,227.5,2.82,242.22,3,246Z"/><path class="cls-8" d="M-1,247.17V328.5L690,316c-12.37-65.69-301.71-122-454.5-122C138.14,194,51.94,215-1,247.17Z"/><path class="cls-9" d="M93,252c115-96,444,2,444,2s34,3.78,60.24,0c-100.94-35.5-261-60-361.74-60C138.14,194,51.94,215-1,247.17v80.09C19.88,311.61,50,287.89,93,252Z"/><path class="cls-10" d="M841,285.55c-36.81-6.46-73.17-16.39-109-27.32-14.18-4.33-28.39-8.84-43-11.11s-29.68-2.25-44.57-2.22c-20.67,0-41.35.08-62,.57-9.67.23-19.66.64-28.39,4.82-5.46,2.61-10.14,6.57-15.27,9.77-18.39,11.46-41.14,12.46-62.23,17.43s-43.62,17-48.26,38.2L841,296.87Z"/><path class="cls-11" d="M.53,313c-1.43-2.12-.43-5.06,1.12-7.09s3.63-3.73,4.63-6.09a16.72,16.72,0,0,0,.89-5.89,104.63,104.63,0,0,1,3.3-22.17,5,5,0,0,1,.6-1.56,3.45,3.45,0,0,1,4.17-.91,8.34,8.34,0,0,1,3.32,3.14c7,10.19,8.08,24.32,17.48,32.36Z"/><ellipse class="cls-12" cx="13.08" cy="285.18" rx="3.32" ry="0.95" transform="translate(-272.21 274.61) rotate(-85.25)"/><ellipse class="cls-12" cx="20.87" cy="297.24" rx="3.32" ry="1.66" transform="translate(-277.08 293.44) rotate(-85.25)"/><ellipse class="cls-12" cx="8.95" cy="303.38" rx="1.9" ry="0.71" transform="translate(-294.13 287.19) rotate(-85.25)"/><ellipse class="cls-12" cx="16.16" cy="273.79" rx="1.66" ry="1.18" transform="translate(-258.02 267.24) rotate(-85.25)"/><ellipse class="cls-12" cx="12.98" cy="294.92" rx="1.66" ry="0.71" transform="translate(-282 283.45) rotate(-85.25)"/><path class="cls-11" d="M25.84,310c-1.43-2.12-.43-5.06,1.12-7.09s3.63-3.73,4.63-6.09a16.72,16.72,0,0,0,.89-5.89,104.63,104.63,0,0,1,3.3-22.17,5,5,0,0,1,.6-1.56,3.45,3.45,0,0,1,4.17-.91,8.34,8.34,0,0,1,3.32,3.14c7,10.19,8.08,24.32,17.48,32.36Z"/><ellipse class="cls-12" cx="38.39" cy="282.2" rx="3.32" ry="0.95" transform="translate(-246.02 297.1) rotate(-85.25)"/><ellipse class="cls-12" cx="46.18" cy="294.26" rx="3.32" ry="1.66" transform="translate(-250.89 315.93) rotate(-85.25)"/><ellipse class="cls-12" cx="34.26" cy="300.4" rx="1.9" ry="0.71" transform="translate(-267.95 309.68) rotate(-85.25)"/><ellipse class="cls-12" cx="41.47" cy="270.81" rx="1.66" ry="1.18" transform="translate(-231.84 289.73) rotate(-85.25)"/><ellipse class="cls-12" cx="38.29" cy="291.94" rx="1.66" ry="0.71" transform="translate(-255.82 305.94) rotate(-85.25)"/><path class="cls-11" d="M53.84,307c-1.43-2.12-.43-5.06,1.12-7.09s3.63-3.73,4.63-6.09a16.72,16.72,0,0,0,.89-5.89,104.63,104.63,0,0,1,3.3-22.17,5,5,0,0,1,.6-1.56,3.45,3.45,0,0,1,4.17-.91,8.34,8.34,0,0,1,3.32,3.14c7,10.19,8.08,24.32,17.48,32.36Z"/><ellipse class="cls-12" cx="66.39" cy="279.2" rx="3.32" ry="0.95" transform="translate(-217.35 322.25) rotate(-85.25)"/><ellipse class="cls-12" cx="74.18" cy="291.26" rx="3.32" ry="1.66" transform="translate(-222.22 341.08) rotate(-85.25)"/><ellipse class="cls-12" cx="62.26" cy="297.4" rx="1.9" ry="0.71" transform="translate(-239.28 334.84) rotate(-85.25)"/><ellipse class="cls-12" cx="69.47" cy="267.81" rx="1.66" ry="1.18" transform="translate(-203.17 314.88) rotate(-85.25)"/><ellipse class="cls-12" cx="66.29" cy="288.94" rx="1.66" ry="0.71" transform="translate(-227.14 331.09) rotate(-85.25)"/><path class="cls-4" d="M802,292s-84-35-152-22-92,27-92,27Z"/><path class="cls-13" d="M841.94,297.67c-25.84-7.89-53.48-9.4-80.61-10.78-107.87-5.51-215.86-11-323.84-8.63-60.5,1.34-120.92,5.17-181.32,9L71.79,298.92C47.24,300.47,22.27,302.14-1,309.79v27.88C32.15,332.92,420,298,420,298s350,4,354,4l67.93.18Z"/><path class="cls-14" d="M841,595H-1V314s310.75-28.63,416-29,427,12,427,12Z"/><path class="cls-15" d="M841,595H-1V314s310.75-28.63,416-29,427,12,427,12Z"/><path class="cls-16" d="M842,297s-321.75-12.37-427-12S-1,314-1,314V595H203.84c108.08-40.87,190.26-250.41,190.26-250.41s130.49-7.5,135-7.5,78-6,91.5-6,216-21,216-21L842,308Z"/><path class="cls-17" d="M415,285c-105.25.38-416,29-416,29V595H125.88C391.93,485.3,371.59,325.09,371.59,325.09c57,24,441-21,441-21l14.3-7.66C762,294,506.58,284.67,415,285Z"/><path class="cls-18" d="M287.53,290.85C158.39,299.32-1,314-1,314V583.46c27.84-8.44,61.91-18.82,69.61-21.39,13.5-4.5,36-13.5,114-67.5C250.22,447.77,280.63,323.18,287.53,290.85Z"/><path class="cls-19" d="M-1,331.14v235C223,527,266.35,345.05,274.3,291.73c-74.58,5.05-156.89,11.88-211.9,16.65C40.22,316,18.65,323.77-1,331.14Z"/><path class="cls-20" d="M178.1,383.59c20.35-17.81,41.77-72.27,47.82-88.42C112.75,303.52-1,314-1,314V456c36.52,5.82,93.08-2.65,114.61-13.92C145.1,425.58,154.1,404.59,178.1,383.59Z"/><path class="cls-15" d="M842,502.33c-52-11-79-16.33-120,4.67s-47,19-70,44-45,40-48,44,239.33.67,239.33.67Z"/><path class="cls-13" d="M483,462c-10.82,0-19.62,9.45-20,21.25a18.36,18.36,0,0,0-3-.25,19.53,19.53,0,0,0-16.46,9.5A22,22,0,0,0,406,500.35,22.18,22.18,0,0,0,394,497c-7.34,0-13.65,3.18-16.45,7.74A22,22,0,0,0,344.92,502a41,41,0,1,0,12.32,37.83,22,22,0,0,0,24.69-20.2A22.16,22.16,0,0,0,394,523a21.13,21.13,0,0,0,14-4.86,22,22,0,0,0,37,1.46A19.22,19.22,0,0,0,460,527c10.82,0,19.62-9.45,20-21.25a18.36,18.36,0,0,0,3,.25c11,0,20-9.85,20-22S494,462,483,462Z"/><path class="cls-11" d="M110.26,597.3c-3-4.48-.9-10.67,2.37-15s7.66-7.87,9.76-12.84c1.64-3.88,1.72-8.22,1.89-12.43a220.8,220.8,0,0,1,7-46.78,10.61,10.61,0,0,1,1.27-3.29c1.81-2.71,5.81-3.21,8.8-1.92s5.16,3.94,7,6.63C163.12,533.2,165.39,563,185.21,580Z"/><ellipse class="cls-12" cx="136.73" cy="538.65" rx="7" ry="2" transform="translate(-411.39 630.34) rotate(-85.25)"/><ellipse class="cls-12" cx="153.18" cy="564.1" rx="7" ry="3.5" transform="translate(-421.66 670.07) rotate(-85.25)"/><ellipse class="cls-12" cx="128.02" cy="577.06" rx="4" ry="1.5" transform="translate(-457.65 656.89) rotate(-85.25)"/><ellipse class="cls-12" cx="143.25" cy="514.61" rx="3.5" ry="2.5" transform="translate(-381.45 614.77) rotate(-85.25)"/><ellipse class="cls-12" cx="136.53" cy="559.21" rx="3.5" ry="1.5" transform="translate(-432.06 648.99) rotate(-85.25)"/><path class="cls-11" d="M159.76,600.3c-3-4.48-.9-10.67,2.37-15s7.66-7.87,9.76-12.84c1.64-3.88,1.72-8.22,1.89-12.43a220.8,220.8,0,0,1,7-46.78A10.61,10.61,0,0,1,182,510c1.81-2.71,5.81-3.21,8.8-1.92s5.16,3.94,7,6.63C212.61,536.2,214.88,566,234.71,583Z"/><ellipse class="cls-12" cx="186.23" cy="541.65" rx="7" ry="2" transform="translate(-368.98 682.42) rotate(-85.25)"/><ellipse class="cls-12" cx="202.68" cy="567.1" rx="7" ry="3.5" transform="translate(-379.25 722.15) rotate(-85.25)"/><ellipse class="cls-12" cx="177.52" cy="580.06" rx="4" ry="1.5" transform="translate(-415.24 708.97) rotate(-85.25)"/><ellipse class="cls-12" cx="192.74" cy="517.61" rx="3.5" ry="2.5" transform="translate(-339.04 666.85) rotate(-85.25)"/><ellipse class="cls-12" cx="186.03" cy="562.21" rx="3.5" ry="1.5" transform="translate(-389.64 701.07) rotate(-85.25)"/><path class="cls-11" d="M216.75,567.3c-3-4.48-.9-10.67,2.37-15s7.66-7.87,9.76-12.84c1.64-3.88,1.72-8.22,1.89-12.43a220.8,220.8,0,0,1,7-46.78A10.61,10.61,0,0,1,239,477c1.81-2.71,5.81-3.21,8.8-1.92s5.16,3.94,7,6.63C269.61,503.2,271.88,533,291.71,550Z"/><ellipse class="cls-12" cx="243.23" cy="508.65" rx="7" ry="2" transform="translate(-283.81 708.95) rotate(-85.25)"/><ellipse class="cls-12" cx="259.68" cy="534.1" rx="7" ry="3.5" transform="translate(-294.08 748.69) rotate(-85.25)"/><ellipse class="cls-12" cx="234.52" cy="547.06" rx="4" ry="1.5" transform="translate(-330.08 735.5) rotate(-85.25)"/><ellipse class="cls-12" cx="249.74" cy="484.61" rx="3.5" ry="2.5" transform="translate(-253.88 693.39) rotate(-85.25)"/><ellipse class="cls-12" cx="243.03" cy="529.21" rx="3.5" ry="1.5" transform="translate(-304.48 727.6) rotate(-85.25)"/><path class="cls-11" d="M710.78,372.14c-2.16-3.22-.65-7.67,1.71-10.76s5.51-5.66,7-9.24c1.18-2.79,1.24-5.91,1.36-8.94a158.79,158.79,0,0,1,5-33.64,7.63,7.63,0,0,1,.92-2.36c1.3-1.95,4.18-2.31,6.33-1.38a12.65,12.65,0,0,1,5,4.77c10.63,15.46,12.27,36.92,26.52,49.11Z"/><ellipse class="cls-12" cx="729.81" cy="329.97" rx="5.03" ry="1.44" transform="translate(340.58 1029.97) rotate(-85.25)"/><ellipse class="cls-12" cx="741.64" cy="348.27" rx="5.03" ry="2.52" transform="translate(333.19 1058.55) rotate(-85.25)"/><ellipse class="cls-12" cx="723.55" cy="357.59" rx="2.88" ry="1.08" transform="translate(307.31 1049.07) rotate(-85.25)"/><ellipse class="cls-12" cx="734.5" cy="312.68" rx="2.52" ry="1.8" transform="translate(362.11 1018.78) rotate(-85.25)"/><ellipse class="cls-12" cx="729.67" cy="344.75" rx="2.52" ry="1.08" transform="translate(325.72 1043.38) rotate(-85.25)"/><path class="cls-11" d="M746.37,374.3c-2.16-3.22-.65-7.67,1.71-10.76s5.51-5.66,7-9.24c1.18-2.79,1.24-5.91,1.36-8.94a158.79,158.79,0,0,1,5-33.64,7.63,7.63,0,0,1,.92-2.36c1.3-1.95,4.18-2.31,6.33-1.38a12.65,12.65,0,0,1,5,4.77c10.63,15.46,12.27,36.92,26.52,49.11Z"/><ellipse class="cls-12" cx="765.41" cy="332.13" rx="5.03" ry="1.44" transform="translate(371.08 1067.42) rotate(-85.25)"/><ellipse class="cls-12" cx="777.24" cy="350.43" rx="5.03" ry="2.52" transform="translate(363.69 1096) rotate(-85.25)"/><ellipse class="cls-12" cx="759.15" cy="359.75" rx="2.88" ry="1.08" transform="translate(337.81 1086.52) rotate(-85.25)"/><ellipse class="cls-12" cx="770.09" cy="314.83" rx="2.52" ry="1.8" transform="translate(392.61 1056.23) rotate(-85.25)"/><ellipse class="cls-12" cx="765.27" cy="346.91" rx="2.52" ry="1.08" transform="translate(356.22 1080.84) rotate(-85.25)"/><path class="cls-11" d="M787.36,350.57c-2.16-3.22-.65-7.67,1.71-10.76s5.51-5.66,7-9.24c1.18-2.79,1.24-5.91,1.36-8.94a158.79,158.79,0,0,1,5-33.64,7.63,7.63,0,0,1,.92-2.36c1.3-1.95,4.18-2.31,6.33-1.38a12.65,12.65,0,0,1,5,4.77c10.63,15.46,12.27,36.92,26.52,49.11Z"/><ellipse class="cls-12" cx="806.4" cy="308.39" rx="5.03" ry="1.44" transform="translate(432.32 1086.51) rotate(-85.25)"/><ellipse class="cls-12" cx="818.23" cy="326.7" rx="5.03" ry="2.52" transform="translate(424.94 1115.08) rotate(-85.25)"/><ellipse class="cls-12" cx="800.14" cy="336.02" rx="2.88" ry="1.08" transform="matrix(0.08, -1, 1, 0.08, 399.05, 1105.6)"/><ellipse class="cls-12" cx="811.08" cy="291.1" rx="2.52" ry="1.8" transform="translate(453.85 1075.31) rotate(-85.25)"/><ellipse class="cls-12" cx="806.25" cy="323.18" rx="2.52" ry="1.08" transform="translate(417.46 1099.92) rotate(-85.25)"/><path class="cls-21" d="M503,475c-10.82,0-19.62,9.45-20,21.25a18.36,18.36,0,0,0-3-.25,19.53,19.53,0,0,0-16.46,9.5A22,22,0,0,0,426,513.35,22.18,22.18,0,0,0,414,510c-7.34,0-13.65,3.18-16.45,7.74A22,22,0,0,0,364.92,515a41,41,0,1,0,12.32,37.83,22,22,0,0,0,24.69-20.2A22.16,22.16,0,0,0,414,536a21.13,21.13,0,0,0,14-4.86,22,22,0,0,0,37,1.46A19.22,19.22,0,0,0,480,540c10.82,0,19.62-9.45,20-21.25a18.36,18.36,0,0,0,3,.25c11,0,20-9.85,20-22S514,475,503,475Z"/><path class="cls-21" d="M483.3,518c10.72-1.44,18.19-12,17-23.72a18.36,18.36,0,0,0,3-.15,19.53,19.53,0,0,0,15-11.61,22,22,0,0,0,36.14-12.77,22.18,22.18,0,0,0,12.36,1.72c7.28-1,13.11-5,15.27-9.86a22,22,0,0,0,32.7-1.62,41,41,0,1,0-17.25-35.86,22,22,0,0,0-21.78,23.3,22.16,22.16,0,0,0-12.41-1.74,21.13,21.13,0,0,0-13.26,6.69,22,22,0,0,0-36.87,3.48,19.22,19.22,0,0,0-15.82-5.35c-10.72,1.44-18.19,12-17,23.72a18.36,18.36,0,0,0-3,.15c-10.95,1.47-18.51,12.42-16.89,24.47S472.35,519.51,483.3,518Z"/><path class="cls-13" d="M558.3,470c10.72-1.44,18.19-12,17-23.72a18.36,18.36,0,0,0,3-.15,19.53,19.53,0,0,0,15-11.61,22,22,0,0,0,36.14-12.77,22.18,22.18,0,0,0,12.36,1.72c7.28-1,13.11-5,15.27-9.86a22,22,0,0,0,32.7-1.62,41,41,0,1,0-17.25-35.86,22,22,0,0,0-21.78,23.3,22.16,22.16,0,0,0-12.41-1.74,21.13,21.13,0,0,0-13.26,6.69,22,22,0,0,0-36.87,3.48,19.22,19.22,0,0,0-15.82-5.35c-10.72,1.44-18.19,12-17,23.72a18.36,18.36,0,0,0-3,.15c-10.95,1.47-18.51,12.42-16.89,24.47S547.35,471.51,558.3,470Z"/><path class="cls-17" d="M772.07,332.59s-253.49,18-286.49,22.5-96-24-93,36S350.41,488.42,394,523s151.58-19.42,156.08-20.92,285-171,285-171Z"/><path class="cls-13" d="M841,595l.16-46.78a41,41,0,0,0-40.61,26.62,22,22,0,0,0-27.66,15.88,22.16,22.16,0,0,0-11.35-5.31,21.13,21.13,0,0,0-14.64,2.5,22,22,0,0,0-36.27-7.5,19.22,19.22,0,0,0-13.55-9.76c-10.67-1.77-20.91,6.1-23.2,17.69a18.36,18.36,0,0,0-2.94-.74c-7-1.17-13.9,1.87-18.41,7.4Z"/><path class="cls-22" d="M841,297.14l-15.65.32c-17.78,10.2-30.13,27.57-45.77,40.83-32.23,27.33-75.88,35.55-115.43,50.42-29.1,10.94-56.54,25.81-83.87,40.63l-86.66,47c-19.27,10.45-38.69,21-59.64,27.43-21.72,6.71-44.53,8.9-66.92,12.86C272.43,533.34,183.84,581.72,89.75,595h410c33.32-10.33,65.53-24.73,96.11-41.55C653.6,521.67,706.14,481.37,758.27,441c28.59-22.13,57.24-44.43,82.73-70Z"/><path class="cls-4" d="M844,292l-27.2,20.31C799.63,322,787.7,338.41,772.62,351c-31.1,25.88-73.22,33.66-111.38,47.74-28.08,10.36-54.56,24.44-80.93,38.47l-83.62,44.49c-18.59,9.89-37.34,19.85-57.54,26-21,6.35-43,8.43-64.57,12.17C283.26,535.62,197.79,581.42,107,594H502.59c32.15-9.78,53.79-24.08,83.29-40,55.73-30.08,107-68.8,157.28-107,27.59-21,78.24-59.74,102.83-84Z"/><path id="_Path_" data-name="&lt;Path&gt;" class="cls-23" d="M776.4,489.09c-.25-.08-.72.08-.89-.18-.06-.09,0-.23,0-.32-.15-.26-.73-.32-1-.34a.38.38,0,0,1-.28-.1.29.29,0,0,1,0-.13.86.86,0,0,1,.09-.54.4.4,0,0,0-.44.39.3.3,0,0,1-.12-.27,1.59,1.59,0,0,1,.12-.64.31.31,0,0,0-.33,0,.59.59,0,0,0-.18.3c-.12.42.08.71.14,1.11a1.29,1.29,0,0,1-.5,1,26.43,26.43,0,0,0-2.15,2.54,1.31,1.31,0,0,0-.22.38.92.92,0,0,0,.58,1,2.69,2.69,0,0,0,1.28.12l.09-.09c.4,0,.72.34,1.08.52a5.2,5.2,0,0,0,1.51.32,1.63,1.63,0,0,1,1.28.77c.08.17.11.36.2.53s.2.28.28.43a2.15,2.15,0,0,1,.14.59,5.1,5.1,0,0,0,.59,1.49,3.19,3.19,0,0,0,.81,1.1,2.07,2.07,0,0,0,.87.37c.31.06.64,0,.61.44l-.07.92a1.15,1.15,0,0,0,0,.47c0,.12.12.22.17.33a1.5,1.5,0,0,1,0,1.08,8.56,8.56,0,0,1-.83,1.82c-.05.09-.11.22,0,.29a.22.22,0,0,0,.12,0,6.46,6.46,0,0,0,1.12,0,.53.53,0,0,1,.14-.47c.07-.05.17-.07.23-.13a.43.43,0,0,0,.06-.34,5.16,5.16,0,0,1,.51-2.33c0-.07.09-.16.16-.14s.07.07.08.12a2.39,2.39,0,0,1,.08,1.5c-.15.38-.49.67-.6,1.06a4.46,4.46,0,0,0,1.23.06c0-.19,0-.42.2-.49a.76.76,0,0,0,.14-.05c.12-.08.07-.27,0-.4a3.3,3.3,0,0,1-.1-1.47c0-.47,0-.95.12-1.41,0-.25-.07-.83.13-1a.48.48,0,0,1,.33-.07c1.9.1,3.71,1.18,5.6,1a9.46,9.46,0,0,0,2.58-.87,1.56,1.56,0,0,1,1.18-.16.8.8,0,0,1,.46.52.85.85,0,0,0,.1.31c.07.09.23.11.28,0s0-.16,0-.24a.28.28,0,0,1,.44-.23.38.38,0,0,0,.14.45c.13,0,0-.28.14-.37a.25.25,0,0,1,.12,0,.83.83,0,0,0,.57-.37c.07-.13,0-.47.28-.38a.53.53,0,0,1,.28.32,2.12,2.12,0,0,0,.75,1.09.23.23,0,0,0-.06.31,2.17,2.17,0,0,0,.21.27,1.18,1.18,0,0,1,.16.34,7.15,7.15,0,0,1,.34,1.9,1.44,1.44,0,0,1-.36,1.2c-.14.12-.34.2-.39.38a3.94,3.94,0,0,0,1.23.12.24.24,0,0,0,.21-.09c0-.07,0-.17,0-.25s.39-.14.51-.31,0-.37-.07-.56a1.5,1.5,0,0,1,.15-.6,5.21,5.21,0,0,0,0-1c.06-.64.51-1.23.4-1.87a3.29,3.29,0,0,1-.13-.65,1.87,1.87,0,0,1,.07-.36,2.25,2.25,0,0,0-.08-1.31.66.66,0,0,1-.07-.33,1.46,1.46,0,0,1,.09-.22,1,1,0,0,0,0-.52c-.07-.31-.17-.62-.24-.93a4.2,4.2,0,0,1,0-.89,17.45,17.45,0,0,0-.17-2.15,5,5,0,0,0-.24-1.18,3,3,0,0,0-1.35-1.49c-1.39-.77-2.77-.35-4.22,0a26.58,26.58,0,0,1-3.14.42,19.2,19.2,0,0,1-2.41.13,20.77,20.77,0,0,1-2.79-.35q-3-.51-6-.87a2.92,2.92,0,0,1-.77-.16C776.71,489.25,776.56,489.15,776.4,489.09Z"/><path id="_Path_2" data-name="&lt;Path&gt;" class="cls-24" d="M810.4,522.43c-.25-.08-.72.08-.89-.18-.06-.09,0-.23,0-.32-.15-.26-.73-.32-1-.34a.38.38,0,0,1-.28-.1.29.29,0,0,1,0-.13.86.86,0,0,1,.09-.54.4.4,0,0,0-.44.39.3.3,0,0,1-.12-.27,1.59,1.59,0,0,1,.12-.64.31.31,0,0,0-.33,0,.59.59,0,0,0-.18.3c-.12.42.08.71.14,1.11a1.29,1.29,0,0,1-.5,1,26.43,26.43,0,0,0-2.15,2.54,1.31,1.31,0,0,0-.22.38.92.92,0,0,0,.58,1,2.69,2.69,0,0,0,1.28.12l.09-.09c.4,0,.72.34,1.08.52a5.2,5.2,0,0,0,1.51.32,1.63,1.63,0,0,1,1.28.77c.08.17.11.36.2.53s.2.28.28.43a2.15,2.15,0,0,1,.14.59,5.1,5.1,0,0,0,.59,1.49,3.19,3.19,0,0,0,.81,1.1,2.07,2.07,0,0,0,.87.37c.31.06.64,0,.61.44l-.07.92a1.15,1.15,0,0,0,0,.47c0,.12.12.22.17.33a1.5,1.5,0,0,1,0,1.08,8.56,8.56,0,0,1-.83,1.82c-.05.09-.11.22,0,.29a.22.22,0,0,0,.12,0,6.46,6.46,0,0,0,1.12,0,.53.53,0,0,1,.14-.47c.07-.05.17-.07.23-.13a.43.43,0,0,0,.06-.34,5.16,5.16,0,0,1,.51-2.33c0-.07.09-.16.16-.14s.07.07.08.12a2.39,2.39,0,0,1,.08,1.5c-.15.38-.49.67-.6,1.06a4.46,4.46,0,0,0,1.23.06c0-.19,0-.42.2-.49a.76.76,0,0,0,.14-.05c.12-.08.07-.27,0-.4a3.3,3.3,0,0,1-.1-1.47c0-.47,0-.95.12-1.41,0-.25-.07-.83.13-1a.48.48,0,0,1,.33-.07c1.9.1,3.71,1.18,5.6,1a9.46,9.46,0,0,0,2.58-.87,1.56,1.56,0,0,1,1.18-.16.8.8,0,0,1,.46.52.85.85,0,0,0,.1.31c.07.09.23.11.28,0s0-.16,0-.24a.28.28,0,0,1,.44-.23.38.38,0,0,0,.14.45c.13,0,0-.28.14-.37a.25.25,0,0,1,.12,0,.83.83,0,0,0,.57-.37c.07-.13,0-.47.28-.38a.53.53,0,0,1,.28.32,2.12,2.12,0,0,0,.75,1.09.23.23,0,0,0-.06.31,2.17,2.17,0,0,0,.21.27,1.18,1.18,0,0,1,.16.34,7.15,7.15,0,0,1,.34,1.9,1.44,1.44,0,0,1-.36,1.2c-.14.12-.34.2-.39.38a3.94,3.94,0,0,0,1.23.12.24.24,0,0,0,.21-.09c0-.07,0-.17,0-.25s.39-.14.51-.31,0-.37-.07-.56a1.5,1.5,0,0,1,.15-.6,5.21,5.21,0,0,0,0-1c.06-.64.51-1.23.4-1.87a3.29,3.29,0,0,1-.13-.65,1.87,1.87,0,0,1,.07-.36,2.25,2.25,0,0,0-.08-1.31.66.66,0,0,1-.07-.33,1.46,1.46,0,0,1,.09-.22,1,1,0,0,0,0-.52c-.07-.31-.17-.62-.24-.93a4.2,4.2,0,0,1,0-.89,17.45,17.45,0,0,0-.17-2.15,5,5,0,0,0-.24-1.18,3,3,0,0,0-1.35-1.49c-1.39-.77-2.77-.35-4.22,0a26.58,26.58,0,0,1-3.14.42,19.2,19.2,0,0,1-2.41.13,20.77,20.77,0,0,1-2.79-.35q-3-.51-6-.87a2.92,2.92,0,0,1-.77-.16C810.71,522.58,810.56,522.48,810.4,522.43Z"/><path id="_Path_3" data-name="&lt;Path&gt;" class="cls-25" d="M762.4,522.43c-.25-.08-.72.08-.89-.18-.06-.09,0-.23,0-.32-.15-.26-.73-.32-1-.34a.38.38,0,0,1-.28-.1.29.29,0,0,1,0-.13.86.86,0,0,1,.09-.54.4.4,0,0,0-.44.39.3.3,0,0,1-.12-.27,1.59,1.59,0,0,1,.12-.64.31.31,0,0,0-.33,0,.59.59,0,0,0-.18.3c-.12.42.08.71.14,1.11a1.29,1.29,0,0,1-.5,1,26.43,26.43,0,0,0-2.15,2.54,1.31,1.31,0,0,0-.22.38.92.92,0,0,0,.58,1,2.69,2.69,0,0,0,1.28.12l.09-.09c.4,0,.72.34,1.08.52a5.2,5.2,0,0,0,1.51.32,1.63,1.63,0,0,1,1.28.77c.08.17.11.36.2.53s.2.28.28.43a2.15,2.15,0,0,1,.14.59,5.1,5.1,0,0,0,.59,1.49,3.19,3.19,0,0,0,.81,1.1,2.07,2.07,0,0,0,.87.37c.31.06.64,0,.61.44l-.07.92a1.15,1.15,0,0,0,0,.47c0,.12.12.22.17.33a1.5,1.5,0,0,1,0,1.08,8.56,8.56,0,0,1-.83,1.82c-.05.09-.11.22,0,.29a.22.22,0,0,0,.12,0,6.46,6.46,0,0,0,1.12,0,.53.53,0,0,1,.14-.47c.07-.05.17-.07.23-.13a.43.43,0,0,0,.06-.34,5.16,5.16,0,0,1,.51-2.33c0-.07.09-.16.16-.14s.07.07.08.12a2.39,2.39,0,0,1,.08,1.5c-.15.38-.49.67-.6,1.06a4.46,4.46,0,0,0,1.23.06c0-.19,0-.42.2-.49a.76.76,0,0,0,.14-.05c.12-.08.07-.27,0-.4a3.3,3.3,0,0,1-.1-1.47c0-.47,0-.95.12-1.41,0-.25-.07-.83.13-1a.48.48,0,0,1,.33-.07c1.9.1,3.71,1.18,5.6,1a9.46,9.46,0,0,0,2.58-.87,1.56,1.56,0,0,1,1.18-.16.8.8,0,0,1,.46.52.85.85,0,0,0,.1.31c.07.09.23.11.28,0s0-.16,0-.24a.28.28,0,0,1,.44-.23.38.38,0,0,0,.14.45c.13,0,0-.28.14-.37a.25.25,0,0,1,.12,0,.83.83,0,0,0,.57-.37c.07-.13,0-.47.28-.38a.53.53,0,0,1,.28.32,2.12,2.12,0,0,0,.75,1.09.23.23,0,0,0-.06.31,2.17,2.17,0,0,0,.21.27,1.18,1.18,0,0,1,.16.34,7.15,7.15,0,0,1,.34,1.9,1.44,1.44,0,0,1-.36,1.2c-.14.12-.34.2-.39.38a3.94,3.94,0,0,0,1.23.12.24.24,0,0,0,.21-.09c0-.07,0-.17,0-.25s.39-.14.51-.31,0-.37-.07-.56a1.5,1.5,0,0,1,.15-.6,5.21,5.21,0,0,0,0-1c.06-.64.51-1.23.4-1.87a3.29,3.29,0,0,1-.13-.65,1.87,1.87,0,0,1,.07-.36,2.25,2.25,0,0,0-.08-1.31.66.66,0,0,1-.07-.33,1.46,1.46,0,0,1,.09-.22,1,1,0,0,0,0-.52c-.07-.31-.17-.62-.24-.93a4.2,4.2,0,0,1,0-.89,17.45,17.45,0,0,0-.17-2.15,5,5,0,0,0-.24-1.18,3,3,0,0,0-1.35-1.49c-1.39-.77-2.77-.35-4.22,0a26.58,26.58,0,0,1-3.14.42,19.2,19.2,0,0,1-2.41.13,20.77,20.77,0,0,1-2.79-.35q-3-.51-6-.87a2.92,2.92,0,0,1-.77-.16C762.71,522.58,762.56,522.48,762.4,522.43Z"/><path id="_Compound_Path_" data-name="&lt;Compound Path&gt;" class="cls-26" d="M721.06,546.58a10,10,0,0,1,.44-2,13.82,13.82,0,0,0,.28-3.16,11.14,11.14,0,0,0-.31-3.2,4.47,4.47,0,0,0-1.79-2.59c-1.5-1-3.44-.59-5.21-.42a49.36,49.36,0,0,1-7.48-.09,51.93,51.93,0,0,0-7,.25,26,26,0,0,0-2.68.11,6.56,6.56,0,0,0-2.4.89,6.14,6.14,0,0,0-2.23,2.49,17.16,17.16,0,0,1-1.34,3.55c-.21.31-.47.58-.67.9a7.28,7.28,0,0,0-.73,3,3.76,3.76,0,0,1-1.28,2.69.3.3,0,0,1-.28.07.31.31,0,0,1-.12-.12c-.2-.31-.38-.81-.81-.64l-.1.05c-.29.19-.31.6-.31.91a1.73,1.73,0,0,0,.48.86.58.58,0,0,1,.19.31.49.49,0,0,1-.09.29c-.19.33-.42.63-.58,1a1.3,1.3,0,0,0-.07,1.09c.13.26.38.45.49.73a1.58,1.58,0,0,1-.05,1l-.4,1.45c-.11.38-.79,1.19-.58,1.58.05.09.14.16.19.26a1.76,1.76,0,0,1,.07.23c.23.69,1.21.3,1.69.21a1.7,1.7,0,0,0,1.36-1,6.54,6.54,0,0,1,.8-.76,1.76,1.76,0,0,0,.49-.57,3,3,0,0,1,.15-.37c.13-.2.36-.3.54-.45a2,2,0,0,0,.48-1.44l.11-1.89a.24.24,0,0,0,.3.07c.11,0,.2-.12.31-.15a1.05,1.05,0,0,1,.58.09,2,2,0,0,0,2.2-.78,1.1,1.1,0,0,0,.79.9.94.94,0,0,1,.33.11.63.63,0,0,1,.19.38,6.9,6.9,0,0,1-.6,4.67,13.67,13.67,0,0,1-.76,1.24,2.74,2.74,0,0,0,1.66.21.36.36,0,0,0,.26-.13c.09-.15,0-.39.1-.5a.52.52,0,0,1,.16-.06c.26-.09.32-.43.34-.7l.08-1.58a3.21,3.21,0,0,1,.7-2.24,6,6,0,0,1,.61,1.5,3,3,0,0,1-.17,2.24,2.19,2.19,0,0,0-.38.71,4.15,4.15,0,0,0,1.82.1c-.11-.25.42-.32.48-.59a.42.42,0,0,0,0-.22,23.1,23.1,0,0,1-.64-2.6,2.72,2.72,0,0,1-.06-.85,7.8,7.8,0,0,0,.17-.87,9.13,9.13,0,0,0-.24-1.13c0-.31,0-.63,0-.93s-.21-.48-.17-.66a.41.41,0,0,1,.17-.21l.83-.65a1.4,1.4,0,0,1,.35-.22,1.24,1.24,0,0,1,.41-.06A15.59,15.59,0,0,1,707,550l.61.2a4.74,4.74,0,0,0,1.62.32,9.22,9.22,0,0,0,1.34-.25,4.9,4.9,0,0,1,3.21.49,1.66,1.66,0,0,0,.29,1.28l.18-.27a.45.45,0,0,0,.29.12,4.2,4.2,0,0,0,0-.78.43.43,0,0,1,.52.14,1.17,1.17,0,0,1,.21.53,10.36,10.36,0,0,1-.34,5.3,4.78,4.78,0,0,1-1.07,1.66.39.39,0,0,0-.11.19c0,.21.25.3.45.31a1.38,1.38,0,0,0,1.19-.29,1.47,1.47,0,0,1,.18-.21c.19-.15.47-.08.71-.08a.19.19,0,0,0,.1,0c.09-.06,0-.19,0-.29a2.22,2.22,0,0,1,.1-1.49c.12-.38,1.17-4.45,1.27-4.45s.23.23.25.4a2.87,2.87,0,0,0,.47.94,4.34,4.34,0,0,1,.5,2c0,.25-.06.47-.05.71s.19.68.2,1a2.37,2.37,0,0,1-.34,1.18c-.1.19-.49.62-.33.83s1.42,0,1.62-.3.22-.36.41-.41a.93.93,0,0,0,.19,0,.28.28,0,0,0,.11-.31,1.43,1.43,0,0,0-.16-.32,2.35,2.35,0,0,1-.19-1.17q0-1.22.14-2.44a8.87,8.87,0,0,1,.13-1.12,4.45,4.45,0,0,0,.27-1,2.59,2.59,0,0,1,0-.38,1.4,1.4,0,0,1,.13-.36,4.61,4.61,0,0,0,.37-2.36A19.86,19.86,0,0,1,721.06,546.58Zm-.2-1.52-.73,4.59a1.83,1.83,0,0,1-.46-1.12,17.5,17.5,0,0,1,.37-4,15.09,15.09,0,0,1,.54-2q.26-1,.42-2.08a1,1,0,0,1,.12.64A31.33,31.33,0,0,1,720.86,545.07Z"/><path id="_Compound_Path_2" data-name="&lt;Compound Path&gt;" class="cls-27" d="M779.06,559.58a10,10,0,0,1,.44-2,13.82,13.82,0,0,0,.28-3.16,11.14,11.14,0,0,0-.31-3.2,4.47,4.47,0,0,0-1.79-2.59c-1.5-1-3.44-.59-5.21-.42a49.36,49.36,0,0,1-7.48-.09,51.93,51.93,0,0,0-7,.25,26,26,0,0,0-2.68.11,6.56,6.56,0,0,0-2.4.89,6.14,6.14,0,0,0-2.23,2.49,17.16,17.16,0,0,1-1.34,3.55c-.21.31-.47.58-.67.9a7.28,7.28,0,0,0-.73,3,3.76,3.76,0,0,1-1.28,2.69.3.3,0,0,1-.28.07.31.31,0,0,1-.12-.12c-.2-.31-.38-.81-.81-.64l-.1.05c-.29.19-.31.6-.31.91a1.73,1.73,0,0,0,.48.86.58.58,0,0,1,.19.31.49.49,0,0,1-.09.29c-.19.33-.42.63-.58,1a1.3,1.3,0,0,0-.07,1.09c.13.26.38.45.49.73a1.58,1.58,0,0,1-.05,1l-.4,1.45c-.11.38-.79,1.19-.58,1.58.05.09.14.16.19.26a1.76,1.76,0,0,1,.07.23c.23.69,1.21.3,1.69.21a1.7,1.7,0,0,0,1.36-1,6.54,6.54,0,0,1,.8-.76,1.76,1.76,0,0,0,.49-.57,3,3,0,0,1,.15-.37c.13-.2.36-.3.54-.45a2,2,0,0,0,.48-1.44l.11-1.89a.24.24,0,0,0,.3.07c.11,0,.2-.12.31-.15a1.05,1.05,0,0,1,.58.09,2,2,0,0,0,2.2-.78,1.1,1.1,0,0,0,.79.9.94.94,0,0,1,.33.11.63.63,0,0,1,.19.38,6.9,6.9,0,0,1-.6,4.67,13.67,13.67,0,0,1-.76,1.24,2.74,2.74,0,0,0,1.66.21.36.36,0,0,0,.26-.13c.09-.15,0-.39.1-.5a.52.52,0,0,1,.16-.06c.26-.09.32-.43.34-.7l.08-1.58a3.21,3.21,0,0,1,.7-2.24,6,6,0,0,1,.61,1.5,3,3,0,0,1-.17,2.24,2.19,2.19,0,0,0-.38.71,4.15,4.15,0,0,0,1.82.1c-.11-.25.42-.32.48-.59a.42.42,0,0,0,0-.22,23.1,23.1,0,0,1-.64-2.6,2.72,2.72,0,0,1-.06-.85,7.8,7.8,0,0,0,.17-.87,9.13,9.13,0,0,0-.24-1.13c0-.31,0-.63,0-.93s-.21-.48-.17-.66a.41.41,0,0,1,.17-.21l.83-.65a1.4,1.4,0,0,1,.35-.22,1.24,1.24,0,0,1,.41-.06A15.59,15.59,0,0,1,765,563l.61.2a4.74,4.74,0,0,0,1.62.32,9.22,9.22,0,0,0,1.34-.25,4.9,4.9,0,0,1,3.21.49,1.66,1.66,0,0,0,.29,1.28l.18-.27a.45.45,0,0,0,.29.12,4.2,4.2,0,0,0,0-.78.43.43,0,0,1,.52.14,1.17,1.17,0,0,1,.21.53,10.36,10.36,0,0,1-.34,5.3,4.78,4.78,0,0,1-1.07,1.66.39.39,0,0,0-.11.19c0,.21.25.3.45.31a1.38,1.38,0,0,0,1.19-.29,1.47,1.47,0,0,1,.18-.21c.19-.15.47-.08.71-.08a.19.19,0,0,0,.1,0c.09-.06,0-.19,0-.29a2.22,2.22,0,0,1,.1-1.49c.12-.38,1.17-4.45,1.27-4.45s.23.23.25.4a2.87,2.87,0,0,0,.47.94,4.34,4.34,0,0,1,.5,2c0,.25-.06.47-.05.71s.19.68.2,1a2.37,2.37,0,0,1-.34,1.18c-.1.19-.49.62-.33.83s1.42,0,1.62-.3.22-.36.41-.41a.93.93,0,0,0,.19,0,.28.28,0,0,0,.11-.31,1.43,1.43,0,0,0-.16-.32,2.35,2.35,0,0,1-.19-1.17q0-1.22.14-2.44a8.87,8.87,0,0,1,.13-1.12,4.45,4.45,0,0,0,.27-1,2.59,2.59,0,0,1,0-.38,1.4,1.4,0,0,1,.13-.36,4.61,4.61,0,0,0,.37-2.36A19.86,19.86,0,0,1,779.06,559.58Zm-.2-1.52-.73,4.59a1.83,1.83,0,0,1-.46-1.12,17.5,17.5,0,0,1,.37-4,15.09,15.09,0,0,1,.54-2q.26-1,.42-2.08a1,1,0,0,1,.12.64A31.33,31.33,0,0,1,778.86,558.07Z"/><path class="cls-28" d="M82.51,306.65c-31,10-61.3,21.1-83.51,29.58V447.79c135.71,14.73,199.54-117.14,213.83-151.65C166,299.66,119.88,303.46,82.51,306.65Z"/><path class="cls-29" d="M150.5,301C67.19,307.72-1,314-1,314v76.88c18.72-3.64,39-12.18,50-16.88,21-9,44-26,58-33C117.56,335.72,140.08,312.22,150.5,301Z"/><path class="cls-13" d="M841.69,390l-98.11,79s83.84,0,97.76,25.64Z"/><path class="cls-30" d="M-1,372.55C44.51,383.52,142,304,142,304a8.28,8.28,0,0,0-1.25-2.21C61.93,308.2-1,314-1,314Z"/></svg>